<svg xmlns="http://www.w3.org/2000/svg" xmlns:xlink="http://www.w3.org/1999/xlink" width="50" zoomAndPan="magnify" viewBox="0 0 37.5 37.499999" height="50" preserveAspectRatio="xMidYMid meet" version="1.0"><path fill="#612d91" d="M 7.820312 25.34375 C 7.890625 25.613281 7.730469 25.890625 7.460938 25.964844 C 7.191406 26.035156 6.914062 25.875 6.839844 25.605469 L 5.398438 20.230469 C 5.261719 19.714844 5.351562 19.261719 5.582031 18.898438 L 5.550781 12.609375 C 5.550781 12.03125 5.085938 11.5625 4.507812 11.539062 C 3.902344 11.519531 3.394531 11.996094 3.386719 12.609375 L 3.296875 23.558594 C 3.292969 24.027344 3.398438 24.4375 3.621094 24.851562 L 6.71875 30.546875 C 7.296875 31.425781 7.269531 32.285156 7.246094 33.1875 C 7.242188 33.332031 7.238281 33.480469 7.238281 33.71875 C 7.238281 33.996094 7.007812 34.222656 6.730469 34.222656 C 6.449219 34.222656 6.222656 33.996094 6.222656 33.71875 C 6.222656 32.847656 6.308594 31.902344 5.867188 31.089844 L 2.734375 25.335938 C 2.421875 24.761719 2.28125 24.207031 2.289062 23.550781 L 2.378906 12.601562 C 2.386719 11.4375 3.355469 10.503906 4.515625 10.527344 C 5.640625 10.554688 6.554688 11.46875 6.5625 12.609375 L 6.589844 18.101562 C 7.582031 17.714844 8.855469 18.003906 9.179688 19.21875 L 9.910156 21.941406 L 12.808594 25.445312 C 13.355469 26.101562 13.550781 26.820312 13.550781 27.660156 L 13.59375 33.714844 C 13.59375 33.996094 13.367188 34.222656 13.089844 34.222656 C 12.8125 34.222656 12.582031 34 12.582031 33.71875 L 12.539062 27.65625 C 12.542969 27.0625 12.414062 26.554688 12.03125 26.089844 L 9.0625 22.503906 C 9.015625 22.449219 8.980469 22.382812 8.960938 22.308594 L 8.203125 19.480469 C 7.945312 18.515625 6.117188 18.996094 6.375 19.96875 L 7.816406 25.34375 Z M 18.511719 26 C 19.871094 25.082031 22.160156 23.300781 22.351562 21.5625 C 22.414062 21.003906 22.25 20.425781 21.738281 19.863281 C 20.980469 19.023438 19.734375 19.179688 18.960938 19.953125 C 18.71875 20.195312 18.3125 20.203125 18.0625 19.949219 C 17.328125 19.195312 16.054688 19.015625 15.289062 19.863281 C 14.246094 21.015625 14.640625 22.222656 15.496094 23.332031 C 16.285156 24.367188 17.480469 25.300781 18.515625 26 Z M 20.53125 25.757812 C 21.171875 25.230469 21.824219 24.617188 22.335938 23.945312 C 23.480469 22.457031 23.890625 20.738281 22.484375 19.183594 C 21.421875 18.007812 19.703125 18.042969 18.515625 18.996094 C 17.324219 18.039062 15.601562 18.015625 14.542969 19.183594 C 13.8125 19.992188 13.578125 20.839844 13.667969 21.675781 C 13.914062 23.894531 16.527344 25.914062 18.238281 27.027344 C 18.414062 27.140625 18.636719 27.132812 18.796875 27.019531 C 19.277344 26.707031 19.898438 26.277344 20.53125 25.757812 Z M 13.117188 17.738281 C 14.476562 16.824219 16.761719 15.039062 16.957031 13.304688 C 17.015625 12.746094 16.851562 12.167969 16.339844 11.601562 C 15.582031 10.761719 14.332031 10.921875 13.566406 11.691406 C 13.316406 11.941406 12.910156 11.941406 12.664062 11.6875 C 11.929688 10.933594 10.65625 10.757812 9.894531 11.601562 C 8.851562 12.757812 9.242188 13.960938 10.097656 15.074219 C 10.890625 16.105469 12.082031 17.042969 13.117188 17.738281 Z M 15.132812 17.5 C 15.777344 16.972656 16.425781 16.355469 16.941406 15.6875 C 18.082031 14.199219 18.492188 12.480469 17.089844 10.925781 C 16.027344 9.75 14.308594 9.78125 13.117188 10.738281 C 11.929688 9.777344 10.203125 9.753906 9.144531 10.925781 C 8.414062 11.734375 8.179688 12.578125 8.273438 13.414062 C 8.519531 15.632812 11.132812 17.65625 12.839844 18.769531 C 13.015625 18.882812 13.238281 18.875 13.402344 18.761719 C 13.878906 18.449219 14.503906 18.019531 15.132812 17.5 Z M 23.691406 17.738281 C 25.050781 16.824219 27.335938 15.039062 27.527344 13.304688 C 27.589844 12.746094 27.425781 12.167969 26.914062 11.601562 C 26.152344 10.761719 24.902344 10.921875 24.136719 11.691406 C 23.890625 11.941406 23.484375 11.941406 23.238281 11.6875 C 22.503906 10.933594 21.230469 10.757812 20.464844 11.601562 C 19.425781 12.757812 19.816406 13.960938 20.671875 15.074219 C 21.460938 16.105469 22.65625 17.042969 23.691406 17.738281 Z M 25.707031 17.5 C 25.078125 18.019531 24.453125 18.449219 23.976562 18.761719 C 23.8125 18.875 23.589844 18.882812 23.414062 18.769531 C 21.707031 17.65625 19.089844 15.632812 18.847656 13.417969 C 18.753906 12.582031 18.988281 11.734375 19.71875 10.925781 C 20.777344 9.753906 22.503906 9.777344 23.691406 10.738281 C 24.882812 9.78125 26.601562 9.75 27.664062 10.925781 C 29.066406 12.480469 28.65625 14.199219 27.511719 15.6875 C 27 16.355469 26.351562 16.972656 25.707031 17.5 Z M 15.128906 6.070312 C 15.21875 6.335938 15.074219 6.621094 14.8125 6.710938 C 14.546875 6.800781 14.261719 6.65625 14.171875 6.390625 L 13.648438 4.824219 C 13.558594 4.558594 13.703125 4.273438 13.96875 4.183594 C 14.230469 4.09375 14.515625 4.238281 14.605469 4.503906 Z M 22.65625 6.332031 C 22.574219 6.597656 22.289062 6.746094 22.023438 6.664062 C 21.757812 6.578125 21.609375 6.292969 21.695312 6.027344 L 22.199219 4.453125 C 22.28125 4.1875 22.566406 4.039062 22.832031 4.125 C 23.097656 4.207031 23.242188 4.492188 23.160156 4.757812 L 22.65625 6.335938 Z M 12.285156 7.308594 C 12.4375 7.542969 12.375 7.855469 12.140625 8.011719 C 11.910156 8.164062 11.597656 8.101562 11.441406 7.867188 L 9.617188 5.105469 C 9.464844 4.875 9.527344 4.5625 9.761719 4.40625 C 9.992188 4.253906 10.304688 4.316406 10.460938 4.546875 Z M 25.40625 7.773438 C 25.257812 8.007812 24.945312 8.078125 24.707031 7.925781 C 24.472656 7.773438 24.40625 7.460938 24.554688 7.226562 L 26.34375 4.441406 C 26.492188 4.207031 26.808594 4.140625 27.042969 4.289062 C 27.277344 4.441406 27.34375 4.753906 27.195312 4.988281 Z M 19.007812 5.617188 C 19.007812 5.898438 18.777344 6.125 18.5 6.125 C 18.21875 6.125 17.992188 5.898438 17.992188 5.617188 L 17.992188 2.308594 C 17.992188 2.027344 18.21875 1.800781 18.5 1.800781 C 18.777344 1.800781 19.007812 2.027344 19.007812 2.308594 Z M 30.15625 25.605469 C 30.085938 25.875 29.808594 26.035156 29.539062 25.964844 C 29.269531 25.890625 29.109375 25.613281 29.179688 25.34375 L 30.621094 19.96875 C 30.882812 18.992188 29.050781 18.515625 28.792969 19.480469 L 28.035156 22.308594 C 28.015625 22.382812 27.980469 22.449219 27.933594 22.503906 L 24.96875 26.089844 C 24.582031 26.554688 24.457031 27.0625 24.457031 27.65625 L 24.414062 33.71875 C 24.414062 33.996094 24.1875 34.222656 23.90625 34.222656 C 23.628906 34.222656 23.402344 33.996094 23.40625 33.714844 L 23.449219 27.660156 C 23.445312 26.820312 23.640625 26.101562 24.1875 25.441406 L 27.085938 21.941406 L 27.816406 19.21875 C 28.140625 18.003906 29.414062 17.714844 30.410156 18.101562 L 30.4375 12.605469 C 30.441406 11.464844 31.363281 10.546875 32.496094 10.527344 C 33.648438 10.507812 34.609375 11.441406 34.617188 12.601562 L 34.710938 23.550781 C 34.714844 24.203125 34.574219 24.761719 34.261719 25.335938 L 31.132812 31.089844 C 30.6875 31.902344 30.773438 32.847656 30.773438 33.71875 C 30.773438 33.996094 30.546875 34.222656 30.269531 34.222656 C 29.988281 34.222656 29.761719 33.996094 29.761719 33.71875 C 29.761719 33.480469 29.757812 33.332031 29.753906 33.1875 C 29.726562 32.28125 29.703125 31.421875 30.277344 30.546875 L 33.375 24.851562 C 33.601562 24.4375 33.703125 24.027344 33.699219 23.558594 L 33.609375 12.609375 C 33.605469 12 33.097656 11.523438 32.496094 11.539062 C 31.914062 11.558594 31.449219 12.027344 31.445312 12.609375 L 31.414062 18.898438 C 31.644531 19.261719 31.738281 19.714844 31.597656 20.230469 Z M 30.15625 25.605469 " fill-opacity="1" fill-rule="evenodd"/></svg>