<svg xmlns="http://www.w3.org/2000/svg" xmlns:xlink="http://www.w3.org/1999/xlink" width="50" zoomAndPan="magnify" viewBox="0 0 37.5 37.499999" height="50" preserveAspectRatio="xMidYMid meet" version="1.0"><path fill="#612d91" d="M 30.320312 13.269531 L 29.695312 13.269531 C 28.527344 13.269531 27.40625 13.742188 26.585938 14.582031 L 26.585938 8.292969 C 26.585938 7.464844 26.257812 6.675781 25.675781 6.09375 C 25.09375 5.507812 24.300781 5.179688 23.476562 5.179688 C 22.800781 5.175781 22.144531 5.394531 21.609375 5.800781 L 21.609375 3.9375 C 21.609375 2.21875 20.21875 0.824219 18.5 0.824219 C 16.78125 0.824219 15.390625 2.21875 15.390625 3.9375 L 15.390625 5.800781 C 14.851562 5.398438 14.195312 5.179688 13.523438 5.179688 C 11.804688 5.179688 10.410156 6.574219 10.410156 8.292969 L 10.410156 14.582031 C 9.59375 13.742188 8.472656 13.269531 7.300781 13.269531 L 6.679688 13.269531 C 5.648438 13.269531 4.8125 14.101562 4.8125 15.132812 L 4.8125 21.976562 C 4.8125 26.867188 7.421875 31.382812 11.65625 33.828125 C 15.890625 36.273438 21.109375 36.273438 25.34375 33.828125 C 29.578125 31.386719 32.1875 26.867188 32.1875 21.976562 L 32.1875 15.132812 C 32.1875 14.101562 31.351562 13.269531 30.320312 13.269531 Z M 30.941406 21.976562 C 30.941406 26.421875 28.570312 30.527344 24.71875 32.75 C 20.871094 34.972656 16.128906 34.972656 12.277344 32.75 C 8.429688 30.527344 6.058594 26.421875 6.058594 21.976562 L 6.058594 15.132812 C 6.058594 14.789062 6.335938 14.511719 6.679688 14.511719 L 7.300781 14.511719 C 8.125 14.511719 8.917969 14.839844 9.5 15.421875 C 10.082031 16.007812 10.410156 16.796875 10.410156 17.621094 L 10.410156 20.109375 C 10.410156 20.453125 10.691406 20.734375 11.035156 20.734375 C 11.378906 20.734375 11.65625 20.453125 11.65625 20.109375 L 11.65625 8.289062 C 11.65625 7.257812 12.492188 6.425781 13.523438 6.425781 C 14.554688 6.425781 15.390625 7.257812 15.390625 8.289062 L 15.390625 20.109375 C 15.390625 20.453125 15.667969 20.734375 16.011719 20.734375 C 16.355469 20.734375 16.632812 20.453125 16.632812 20.109375 L 16.632812 3.9375 C 16.632812 2.90625 17.46875 2.070312 18.5 2.070312 C 19.53125 2.070312 20.367188 2.90625 20.367188 3.9375 L 20.367188 20.109375 C 20.367188 20.453125 20.644531 20.734375 20.988281 20.734375 C 21.332031 20.734375 21.609375 20.453125 21.609375 20.109375 L 21.609375 8.289062 C 21.609375 7.257812 22.445312 6.425781 23.476562 6.425781 C 24.507812 6.425781 25.34375 7.257812 25.34375 8.289062 L 25.34375 20.109375 C 25.34375 20.453125 25.621094 20.734375 25.964844 20.734375 C 26.308594 20.734375 26.585938 20.453125 26.585938 20.109375 L 26.585938 17.621094 C 26.585938 15.902344 27.976562 14.511719 29.695312 14.511719 L 30.320312 14.511719 C 30.484375 14.511719 30.640625 14.578125 30.757812 14.695312 C 30.875 14.808594 30.941406 14.96875 30.941406 15.132812 Z M 18.5 23.222656 C 13.890625 23.222656 10.414062 24.824219 10.414062 26.953125 C 10.414062 29.082031 13.890625 30.6875 18.5 30.6875 C 23.109375 30.6875 26.585938 29.082031 26.585938 26.953125 C 26.585938 24.824219 23.109375 23.222656 18.5 23.222656 Z M 11.65625 26.953125 C 11.65625 26.214844 12.8125 25.421875 14.640625 24.9375 C 13.984375 26.199219 13.984375 27.707031 14.640625 28.96875 C 12.8125 28.484375 11.65625 27.695312 11.65625 26.953125 Z M 16.496094 29.324219 C 15.800781 28.734375 15.398438 27.867188 15.398438 26.953125 C 15.398438 26.039062 15.800781 25.175781 16.496094 24.582031 C 17.828125 24.425781 19.171875 24.425781 20.5 24.582031 C 21.195312 25.175781 21.597656 26.039062 21.597656 26.953125 C 21.597656 27.867188 21.195312 28.734375 20.5 29.324219 C 19.171875 29.480469 17.828125 29.480469 16.496094 29.324219 Z M 22.355469 28.96875 C 23.015625 27.707031 23.015625 26.199219 22.355469 24.9375 C 24.183594 25.421875 25.34375 26.214844 25.34375 26.953125 C 25.34375 27.695312 24.183594 28.484375 22.355469 28.96875 Z M 22.355469 28.96875 " fill-opacity="1" fill-rule="nonzero"/></svg>