<svg xmlns="http://www.w3.org/2000/svg" xmlns:xlink="http://www.w3.org/1999/xlink" width="50" zoomAndPan="magnify" viewBox="0 0 37.5 37.499999" height="50" preserveAspectRatio="xMidYMid meet" version="1.0"><path fill="#612d91" d="M 13.101562 18.191406 C 15.464844 19.617188 17.488281 19.765625 18.234375 19.765625 C 18.347656 19.765625 18.460938 19.765625 18.5 19.765625 C 18.535156 19.765625 18.648438 19.765625 18.761719 19.765625 C 19.511719 19.765625 21.53125 19.617188 23.894531 18.191406 C 27.492188 16.054688 28.914062 13.582031 28.988281 13.507812 L 29.25 13.019531 L 28.691406 13.019531 C 28.578125 13.019531 25.691406 13.058594 22.207031 15.15625 C 21.269531 15.71875 20.445312 16.429688 19.847656 17.144531 C 20.070312 16.316406 20.222656 15.34375 20.222656 14.183594 C 20.222656 10.023438 18.871094 7.511719 18.796875 7.402344 L 18.535156 6.914062 L 18.234375 7.402344 C 18.160156 7.511719 16.738281 10.023438 16.738281 14.070312 C 16.738281 15.230469 16.960938 16.316406 17.261719 17.253906 C 16.625 16.542969 15.761719 15.757812 14.789062 15.195312 C 11.304688 13.097656 8.417969 13.058594 8.304688 13.058594 L 7.746094 13.058594 L 8.007812 13.546875 C 8.082031 13.582031 9.542969 16.019531 13.101562 18.191406 Z M 22.542969 15.679688 C 24.941406 14.257812 27.042969 13.808594 28.054688 13.695312 C 27.453125 14.519531 26.03125 16.167969 23.554688 17.628906 C 21.609375 18.792969 19.882812 19.054688 19.058594 19.089844 C 19.621094 18.304688 20.859375 16.691406 22.542969 15.679688 Z M 18.5 8.261719 C 18.871094 9.199219 19.585938 11.296875 19.585938 14.144531 C 19.585938 16.394531 18.949219 17.96875 18.535156 18.753906 C 18.160156 17.929688 17.410156 16.019531 17.375 14.03125 C 17.375 11.261719 18.085938 9.199219 18.5 8.261719 Z M 14.453125 15.679688 C 16.136719 16.691406 17.375 18.304688 17.9375 19.089844 C 17.113281 19.054688 15.386719 18.792969 13.441406 17.628906 C 11.003906 16.167969 9.542969 14.519531 8.945312 13.695312 C 9.957031 13.808594 12.089844 14.257812 14.453125 15.679688 Z M 14.453125 15.679688 " fill-opacity="1" fill-rule="nonzero"/><path fill="#612d91" d="M 30.75 18.191406 C 31.5 18.191406 32.097656 17.59375 32.097656 16.84375 C 32.097656 16.09375 31.5 15.492188 30.75 15.492188 C 30 15.492188 29.402344 16.09375 29.402344 16.84375 C 29.402344 17.59375 30 18.191406 30.75 18.191406 Z M 30.75 16.132812 C 31.164062 16.132812 31.460938 16.46875 31.460938 16.84375 C 31.460938 17.253906 31.125 17.554688 30.75 17.554688 C 30.339844 17.554688 30.039062 17.21875 30.039062 16.84375 C 30.039062 16.429688 30.375 16.132812 30.75 16.132812 Z M 30.75 16.132812 " fill-opacity="1" fill-rule="nonzero"/><path fill="#612d91" d="M 6.246094 18.191406 C 6.996094 18.191406 7.59375 17.59375 7.59375 16.84375 C 7.59375 16.09375 6.996094 15.492188 6.246094 15.492188 C 5.496094 15.492188 4.898438 16.09375 4.898438 16.84375 C 4.898438 17.59375 5.496094 18.191406 6.246094 18.191406 Z M 6.246094 16.132812 C 6.65625 16.132812 6.957031 16.46875 6.957031 16.84375 C 6.957031 17.253906 6.621094 17.554688 6.246094 17.554688 C 5.871094 17.554688 5.535156 17.21875 5.535156 16.84375 C 5.535156 16.429688 5.832031 16.132812 6.246094 16.132812 Z M 6.246094 16.132812 " fill-opacity="1" fill-rule="nonzero"/><path fill="#612d91" d="M 34.085938 21.1875 C 33.375 20.363281 32.324219 19.878906 31.238281 19.726562 C 29.101562 19.464844 26.253906 19.992188 22.84375 21.339844 C 20.707031 22.164062 19.023438 23.023438 18.5 23.324219 C 17.972656 23.0625 16.289062 22.164062 14.152344 21.339844 C 10.742188 20.027344 7.894531 19.464844 5.757812 19.726562 C 4.632812 19.878906 3.621094 20.402344 2.910156 21.1875 C 2.160156 22.050781 1.785156 23.101562 1.898438 24.222656 C 2.050781 25.648438 2.796875 26.773438 4.109375 27.523438 C 5.160156 28.121094 6.582031 28.457031 8.082031 28.457031 C 8.082031 28.457031 8.121094 28.457031 8.121094 28.457031 C 10.96875 28.457031 17.375 24.710938 18.535156 24.035156 C 19.660156 24.710938 26.105469 28.457031 28.953125 28.457031 C 28.953125 28.457031 28.988281 28.457031 28.988281 28.457031 C 30.527344 28.457031 31.910156 28.121094 32.960938 27.523438 C 34.273438 26.773438 35.023438 25.648438 35.171875 24.222656 C 35.210938 23.136719 34.871094 22.050781 34.085938 21.1875 Z M 8.082031 27.820312 C 6.621094 27.820312 5.347656 27.484375 4.371094 26.960938 C 3.25 26.324219 2.609375 25.386719 2.5 24.148438 C 2.3125 22.277344 3.773438 20.628906 5.832031 20.363281 C 6.171875 20.328125 6.507812 20.289062 6.882812 20.289062 C 8.757812 20.289062 11.191406 20.851562 13.925781 21.902344 C 15.6875 22.574219 17.113281 23.289062 17.859375 23.664062 C 16.175781 24.675781 10.554688 27.820312 8.082031 27.820312 Z M 34.496094 24.148438 C 34.386719 25.386719 33.75 26.324219 32.625 26.960938 C 31.6875 27.484375 30.375 27.785156 28.953125 27.820312 C 28.953125 27.820312 28.914062 27.820312 28.914062 27.820312 C 26.480469 27.820312 20.859375 24.675781 19.171875 23.699219 C 19.882812 23.324219 21.347656 22.613281 23.105469 21.9375 C 26.367188 20.664062 29.175781 20.140625 31.199219 20.402344 C 33.1875 20.628906 34.648438 22.277344 34.496094 24.148438 Z M 34.496094 24.148438 " fill-opacity="1" fill-rule="nonzero"/><path fill="#612d91" d="M 9.167969 22.050781 C 8.457031 21.414062 7.40625 21.1875 6.46875 21.488281 C 6.171875 21.601562 5.121094 22.011719 4.785156 23.136719 C 4.632812 23.585938 4.558594 24.335938 5.046875 25.199219 C 5.535156 26.058594 6.320312 26.398438 6.65625 26.511719 C 6.957031 26.621094 7.257812 26.660156 7.558594 26.660156 C 7.96875 26.660156 8.304688 26.585938 8.53125 26.511719 C 8.679688 26.433594 8.792969 26.285156 8.71875 26.097656 C 8.644531 25.949219 8.492188 25.835938 8.304688 25.910156 C 8.042969 26.023438 7.480469 26.136719 6.84375 25.910156 C 6.582031 25.835938 5.984375 25.574219 5.609375 24.898438 C 5.234375 24.222656 5.308594 23.664062 5.421875 23.324219 C 5.683594 22.464844 6.546875 22.164062 6.695312 22.089844 C 7.40625 21.863281 8.230469 22.011719 8.757812 22.5 C 8.980469 22.726562 9.503906 23.289062 9.355469 23.886719 C 9.167969 24.449219 8.492188 24.710938 7.933594 24.636719 C 7.59375 24.597656 7.070312 24.335938 7.03125 24 C 6.996094 23.8125 7.109375 23.550781 7.332031 23.4375 C 7.519531 23.363281 7.855469 23.476562 8.007812 23.773438 C 8.082031 23.925781 8.269531 24 8.417969 23.925781 C 8.570312 23.847656 8.644531 23.664062 8.570312 23.511719 C 8.304688 22.949219 7.667969 22.6875 7.109375 22.875 C 6.582031 23.0625 6.359375 23.664062 6.394531 24.074219 C 6.46875 24.75 7.21875 25.199219 7.855469 25.273438 C 8.679688 25.386719 9.730469 24.972656 9.992188 24.074219 C 10.140625 23.4375 9.878906 22.6875 9.167969 22.050781 Z M 9.167969 22.050781 " fill-opacity="1" fill-rule="nonzero"/><path fill="#612d91" d="M 30.527344 21.488281 C 29.589844 21.1875 28.539062 21.414062 27.828125 22.050781 C 27.152344 22.6875 26.855469 23.4375 27.078125 24.074219 C 27.339844 24.972656 28.390625 25.386719 29.214844 25.273438 C 29.851562 25.160156 30.601562 24.75 30.675781 24.074219 C 30.714844 23.625 30.488281 23.0625 29.964844 22.875 C 29.4375 22.6875 28.800781 22.949219 28.503906 23.511719 C 28.425781 23.664062 28.503906 23.847656 28.652344 23.925781 C 28.800781 24 28.988281 23.925781 29.0625 23.773438 C 29.214844 23.476562 29.515625 23.363281 29.738281 23.4375 C 29.964844 23.511719 30.039062 23.8125 30.039062 24 C 30 24.335938 29.476562 24.597656 29.140625 24.636719 C 28.578125 24.710938 27.867188 24.449219 27.714844 23.886719 C 27.527344 23.289062 28.054688 22.726562 28.316406 22.5 C 28.839844 22.011719 29.664062 21.828125 30.375 22.089844 C 30.527344 22.125 31.386719 22.464844 31.648438 23.324219 C 31.761719 23.664062 31.800781 24.222656 31.460938 24.898438 C 31.085938 25.574219 30.488281 25.835938 30.226562 25.910156 C 29.589844 26.136719 29.0625 25.984375 28.765625 25.910156 C 28.613281 25.835938 28.425781 25.949219 28.351562 26.097656 C 28.277344 26.246094 28.390625 26.433594 28.539062 26.511719 C 28.765625 26.585938 29.101562 26.660156 29.515625 26.660156 C 29.777344 26.660156 30.074219 26.621094 30.414062 26.511719 C 30.75 26.398438 31.539062 26.058594 32.023438 25.199219 C 32.511719 24.335938 32.4375 23.585938 32.285156 23.136719 C 31.835938 21.976562 30.824219 21.5625 30.527344 21.488281 Z M 30.527344 21.488281 " fill-opacity="1" fill-rule="nonzero"/></svg>