<svg xmlns="http://www.w3.org/2000/svg" xmlns:xlink="http://www.w3.org/1999/xlink" width="50" zoomAndPan="magnify" viewBox="0 0 37.5 37.499999" height="50" preserveAspectRatio="xMidYMid meet" version="1.0"><defs><clipPath id="af7e44c4ff"><path d="M 0 0 L 37.007812 0 L 37.007812 37.007812 L 0 37.007812 Z M 0 0 " clip-rule="nonzero"/></clipPath></defs><g clip-path="url(#af7e44c4ff)"><path fill="#ffffff" d="M 0 0 L 37.007812 0 L 37.007812 37.007812 L 0 37.007812 Z M 0 0 " fill-opacity="1" fill-rule="nonzero"/><path fill="#ffffff" d="M 0 0 L 37.007812 0 L 37.007812 37.007812 L 0 37.007812 Z M 0 0 " fill-opacity="1" fill-rule="nonzero"/></g><path fill="#612d91" d="M 10.25 32.121094 C 10.324219 32.195312 10.4375 32.269531 10.546875 32.269531 C 10.621094 32.269531 10.730469 32.234375 10.769531 32.195312 L 13.027344 30.269531 C 13.101562 30.199219 13.136719 30.125 13.136719 30.011719 C 13.136719 29.902344 13.101562 29.828125 13.0625 29.753906 L 12.546875 29.160156 L 13.839844 28.050781 L 22.390625 27.605469 C 22.796875 27.605469 23.167969 27.421875 23.460938 27.164062 L 32.160156 19.761719 C 32.972656 19.058594 33.082031 17.835938 32.378906 17.023438 C 31.675781 16.207031 30.457031 16.097656 29.640625 16.800781 L 23.796875 21.351562 C 23.574219 20.6875 22.980469 20.167969 22.242188 20.09375 L 21.648438 20.019531 C 21.316406 18.503906 20.09375 17.355469 18.539062 17.171875 C 18.949219 16.542969 19.578125 15.136719 19.355469 12.953125 C 19.429688 12.953125 19.539062 12.953125 19.613281 12.953125 C 20.28125 12.953125 21.277344 12.804688 22.09375 12.136719 C 22.945312 11.433594 23.386719 10.289062 23.351562 8.769531 C 23.351562 8.585938 23.203125 8.402344 22.980469 8.402344 C 21.425781 8.363281 20.28125 8.769531 19.503906 9.621094 C 19.207031 9.953125 19.019531 10.324219 18.875 10.65625 C 18.761719 10.25 18.613281 9.84375 18.429688 9.398438 C 18.726562 8.957031 19.429688 7.769531 19.167969 6.402344 C 18.984375 5.292969 18.207031 4.328125 16.910156 3.589844 C 16.726562 3.480469 16.503906 3.550781 16.394531 3.699219 C 15.578125 4.996094 15.320312 6.179688 15.652344 7.289062 C 16.0625 8.660156 17.28125 9.398438 17.6875 9.621094 C 18.097656 10.582031 18.316406 11.433594 18.464844 12.210938 C 18.246094 11.953125 17.984375 11.695312 17.652344 11.472656 C 16.765625 10.878906 15.542969 10.804688 14.0625 11.25 C 13.878906 11.324219 13.765625 11.507812 13.804688 11.695312 C 14.171875 13.136719 14.914062 14.136719 15.914062 14.582031 C 16.394531 14.800781 16.910156 14.875 17.394531 14.875 C 17.875 14.875 18.316406 14.800781 18.652344 14.691406 C 18.464844 16.246094 17.800781 17.023438 17.726562 17.097656 C 17.726562 17.097656 17.6875 17.132812 17.6875 17.132812 C 16.320312 17.171875 15.0625 17.984375 14.46875 19.242188 L 13.507812 19.132812 C 12.804688 19.058594 12.027344 19.316406 11.433594 19.835938 L 7.511719 23.203125 L 7.066406 22.648438 C 6.921875 22.5 6.699219 22.464844 6.550781 22.609375 L 4.292969 24.574219 C 4.21875 24.644531 4.183594 24.71875 4.183594 24.832031 C 4.183594 24.941406 4.21875 25.015625 4.253906 25.089844 Z M 20.132812 10.140625 C 20.6875 9.546875 21.539062 9.214844 22.648438 9.175781 C 22.609375 10.289062 22.277344 11.066406 21.648438 11.582031 C 20.910156 12.210938 19.871094 12.25 19.390625 12.210938 C 19.429688 11.769531 19.503906 10.84375 20.132812 10.140625 Z M 16.46875 7.066406 C 16.246094 6.292969 16.394531 5.402344 16.910156 4.402344 C 17.835938 4.996094 18.355469 5.734375 18.503906 6.511719 C 18.6875 7.511719 18.207031 8.4375 17.949219 8.84375 C 17.542969 8.621094 16.765625 8.03125 16.46875 7.066406 Z M 16.207031 13.914062 C 15.503906 13.582031 14.949219 12.878906 14.617188 11.84375 C 15.726562 11.582031 16.617188 11.65625 17.320312 12.101562 C 18.132812 12.621094 18.464844 13.507812 18.613281 13.953125 C 18.132812 14.097656 17.132812 14.359375 16.207031 13.914062 Z M 17.800781 17.910156 L 18.132812 17.910156 C 19.429688 17.910156 20.539062 18.761719 20.910156 19.984375 L 15.285156 19.390625 C 15.800781 18.503906 16.726562 17.910156 17.800781 17.910156 Z M 11.917969 20.425781 C 12.359375 20.058594 12.914062 19.871094 13.433594 19.910156 L 21.316406 20.761719 C 21.316406 20.761719 21.351562 20.761719 21.351562 20.761719 C 21.351562 20.761719 21.351562 20.761719 21.390625 20.761719 L 22.203125 20.871094 C 22.757812 20.910156 23.203125 21.425781 23.167969 21.980469 C 23.128906 22.535156 22.609375 22.980469 22.054688 22.945312 L 15.800781 22.464844 C 15.578125 22.464844 15.433594 22.609375 15.394531 22.796875 C 15.394531 23.019531 15.542969 23.167969 15.726562 23.203125 L 21.980469 23.683594 C 22.871094 23.757812 23.683594 23.167969 23.871094 22.277344 L 30.160156 17.355469 C 30.679688 16.910156 31.417969 16.984375 31.863281 17.503906 C 32.308594 18.023438 32.234375 18.761719 31.714844 19.207031 L 23.019531 26.609375 C 22.832031 26.753906 22.609375 26.828125 22.390625 26.867188 L 13.691406 27.3125 C 13.617188 27.3125 13.542969 27.347656 13.46875 27.386719 L 12.0625 28.570312 L 10.4375 26.644531 L 7.992188 23.796875 Z M 6.734375 23.460938 L 7.179688 24.015625 L 11.730469 29.347656 L 12.25 29.9375 L 10.546875 31.382812 L 5.03125 24.90625 Z M 6.734375 23.460938 " fill-opacity="1" fill-rule="nonzero"/></svg>