<svg xmlns="http://www.w3.org/2000/svg" xmlns:xlink="http://www.w3.org/1999/xlink" width="50" zoomAndPan="magnify" viewBox="0 0 37.5 37.499999" height="50" preserveAspectRatio="xMidYMid meet" version="1.0"><defs><clipPath id="7b3c273756"><path d="M 0.269531 0 L 36 0 L 36 36 L 0.269531 36 Z M 0.269531 0 " clip-rule="nonzero"/></clipPath></defs><g clip-path="url(#7b3c273756)"><path fill="#612d91" d="M 17.96875 28.277344 C 17.433594 24.765625 15.617188 21.40625 12.949219 19.136719 C 11.960938 18.292969 10.734375 17.539062 9.472656 17.207031 C 9.46875 19.128906 10.355469 21.460938 11.980469 23.578125 C 13.578125 25.65625 15.574219 27.222656 17.96875 28.277344 Z M 18.484375 9.984375 C 20.738281 9.070312 22.339844 7.292969 23.066406 5.578125 C 23.84375 3.75 23.753906 1.570312 21.269531 1.570312 C 20.777344 1.570312 20.3125 1.695312 19.882812 1.9375 C 19.453125 2.179688 19.109375 2.511719 18.851562 2.933594 C 18.8125 3 18.761719 3.050781 18.695312 3.089844 C 18.628906 3.125 18.558594 3.144531 18.484375 3.144531 C 18.410156 3.144531 18.339844 3.125 18.273438 3.085938 C 18.207031 3.046875 18.15625 2.996094 18.117188 2.933594 C 17.859375 2.511719 17.515625 2.179688 17.085938 1.9375 C 16.65625 1.695312 16.195312 1.570312 15.699219 1.570312 C 13.21875 1.570312 13.128906 3.75 13.902344 5.578125 C 14.628906 7.292969 16.230469 9.070312 18.484375 9.984375 Z M 23.851562 5.910156 C 23.027344 7.859375 21.210938 9.847656 18.636719 10.839844 C 18.535156 10.878906 18.4375 10.878906 18.335938 10.839844 C 15.769531 9.855469 13.941406 7.851562 13.121094 5.910156 C 12.535156 4.527344 12.320312 2.78125 13.304688 1.65625 C 13.816406 1.070312 14.609375 0.714844 15.699219 0.714844 C 16.238281 0.71875 16.746094 0.828125 17.234375 1.054688 C 17.71875 1.277344 18.136719 1.59375 18.484375 2 C 18.835938 1.59375 19.253906 1.277344 19.738281 1.054688 C 20.226562 0.828125 20.734375 0.71875 21.269531 0.714844 C 23.167969 0.714844 24.3125 1.820312 24.347656 3.59375 C 24.363281 4.3125 24.191406 5.109375 23.851562 5.910156 Z M 19.003906 28.277344 C 21.398438 27.222656 23.394531 25.65625 24.992188 23.578125 C 26.617188 21.460938 27.503906 19.128906 27.5 17.207031 C 25.328125 17.78125 23.34375 19.515625 21.992188 21.277344 C 20.402344 23.355469 19.402344 25.691406 19.003906 28.277344 Z M 28.351562 17.042969 C 30.410156 16.832031 31.820312 17.980469 32.417969 20.214844 C 32.652344 21.089844 32.65625 21.96875 32.425781 22.847656 C 32.199219 23.734375 31.769531 24.507812 31.140625 25.171875 C 31.023438 25.289062 30.980469 25.425781 31.023438 25.585938 C 31.0625 25.746094 31.160156 25.847656 31.320312 25.890625 C 32.199219 26.148438 32.957031 26.601562 33.597656 27.253906 C 34.238281 27.90625 34.679688 28.671875 34.917969 29.554688 C 35.316406 31.035156 35.144531 32.195312 34.578125 33.042969 C 33.40625 34.792969 30.761719 35.054688 28.65625 34.761719 C 25.445312 34.308594 21.753906 32.449219 19.160156 29.140625 C 21.769531 28.027344 23.9375 26.34375 25.667969 24.097656 C 27.449219 21.773438 28.402344 19.183594 28.351562 17.042969 Z M 8.621094 17.042969 C 8.570312 19.183594 9.523438 21.773438 11.304688 24.097656 C 13.035156 26.34375 15.203125 28.027344 17.8125 29.140625 C 15.21875 32.449219 11.527344 34.308594 8.316406 34.761719 C 6.980469 34.949219 5.730469 34.890625 4.695312 34.589844 C 2.339844 33.90625 1.367188 32.109375 2.054688 29.554688 C 2.292969 28.671875 2.734375 27.90625 3.375 27.253906 C 4.015625 26.601562 4.773438 26.148438 5.652344 25.890625 C 5.722656 25.871094 5.785156 25.835938 5.839844 25.78125 C 5.890625 25.726562 5.929688 25.664062 5.949219 25.59375 C 5.96875 25.519531 5.96875 25.449219 5.949219 25.375 C 5.929688 25.300781 5.894531 25.238281 5.84375 25.183594 C 5.210938 24.523438 4.78125 23.753906 4.550781 22.867188 C 4.320312 21.980469 4.324219 21.097656 4.554688 20.214844 C 5.152344 17.980469 6.5625 16.832031 8.621094 17.046875 Z M 27.433594 16.34375 C 26.257812 16.625 25.027344 17.257812 23.867188 18.164062 C 21.242188 20.214844 19.324219 23.324219 18.484375 26.566406 C 17.933594 24.441406 16.992188 22.503906 15.65625 20.757812 C 14.136719 18.777344 11.917969 16.917969 9.539062 16.34375 C 9.875 14.238281 11.410156 13.234375 13.652344 13.234375 C 14.558594 13.234375 15.410156 13.457031 16.199219 13.90625 C 17 14.355469 17.640625 14.972656 18.117188 15.757812 C 18.15625 15.824219 18.207031 15.875 18.273438 15.914062 C 18.339844 15.949219 18.410156 15.96875 18.484375 15.96875 C 18.558594 15.96875 18.628906 15.953125 18.695312 15.914062 C 18.761719 15.878906 18.8125 15.828125 18.851562 15.761719 C 19.328125 14.980469 19.960938 14.367188 20.757812 13.917969 C 21.550781 13.464844 22.40625 13.238281 23.320312 13.234375 C 25.5625 13.234375 27.097656 14.238281 27.433594 16.34375 Z M 26.816406 13.488281 C 27.621094 14.164062 28.097656 15.101562 28.273438 16.195312 C 30.742188 15.945312 32.53125 17.351562 33.242188 19.992188 C 33.480469 20.910156 33.507812 21.835938 33.320312 22.765625 C 33.132812 23.695312 32.746094 24.535156 32.167969 25.285156 C 33.046875 25.648438 33.796875 26.183594 34.425781 26.894531 C 35.054688 27.605469 35.492188 28.417969 35.742188 29.332031 C 36.550781 32.347656 35.3125 34.59375 32.515625 35.40625 C 31.359375 35.742188 29.992188 35.808594 28.539062 35.605469 C 25.136719 35.128906 21.222656 33.160156 18.488281 29.660156 C 15.75 33.160156 11.835938 35.128906 8.433594 35.605469 C 5.976562 35.949219 3.058594 35.566406 1.6875 33.519531 C 0.984375 32.46875 0.765625 31.070312 1.230469 29.332031 C 1.480469 28.417969 1.917969 27.605469 2.546875 26.894531 C 3.175781 26.183594 3.929688 25.648438 4.804688 25.285156 C 4.226562 24.535156 3.839844 23.695312 3.652344 22.765625 C 3.464844 21.835938 3.492188 20.910156 3.730469 19.992188 C 4.441406 17.355469 6.230469 15.945312 8.699219 16.195312 C 9.105469 13.6875 10.988281 12.382812 13.652344 12.382812 C 14.601562 12.386719 15.5 12.597656 16.347656 13.023438 C 17.199219 13.445312 17.910156 14.035156 18.484375 14.789062 C 19.0625 14.035156 19.773438 13.445312 20.621094 13.023438 C 21.472656 12.597656 22.371094 12.386719 23.320312 12.382812 C 24.835938 12.382812 25.992188 12.789062 26.816406 13.488281 Z M 26.816406 13.488281 " fill-opacity="1" fill-rule="evenodd"/></g></svg>