<svg xmlns="http://www.w3.org/2000/svg" xmlns:xlink="http://www.w3.org/1999/xlink" width="50" zoomAndPan="magnify" viewBox="0 0 37.5 37.499999" height="50" preserveAspectRatio="xMidYMid meet" version="1.0"><path fill="#612d91" d="M 18.816406 21.253906 C 11.140625 21.253906 5.128906 24.53125 5.128906 28.71875 C 5.128906 32.90625 11.140625 36.1875 18.816406 36.1875 C 26.496094 36.1875 32.507812 32.90625 32.507812 28.71875 C 32.507812 24.53125 26.496094 21.253906 18.816406 21.253906 Z M 18.816406 34.941406 C 12.074219 34.941406 6.371094 32.09375 6.371094 28.71875 C 6.371094 25.347656 12.074219 22.496094 18.816406 22.496094 C 25.5625 22.496094 31.261719 25.347656 31.261719 28.71875 C 31.261719 32.09375 25.5625 34.941406 18.816406 34.941406 Z M 18.816406 23.742188 C 13.839844 23.742188 9.882812 25.925781 9.882812 28.71875 C 9.882812 31.515625 13.839844 33.699219 18.816406 33.699219 C 23.796875 33.699219 27.753906 31.515625 27.753906 28.71875 C 27.753906 25.925781 23.828125 23.742188 18.816406 23.742188 Z M 18.816406 32.453125 C 14.648438 32.453125 11.128906 30.742188 11.128906 28.71875 C 11.128906 26.699219 14.648438 24.988281 18.816406 24.988281 C 22.988281 24.988281 26.507812 26.699219 26.507812 28.71875 C 26.507812 30.742188 22.988281 32.453125 18.816406 32.453125 Z M 18.816406 26.230469 C 16.433594 26.230469 14.628906 27.300781 14.628906 28.71875 C 14.628906 30.136719 16.433594 31.207031 18.816406 31.207031 C 21.203125 31.207031 23.003906 30.136719 23.003906 28.71875 C 23.003906 27.300781 21.203125 26.230469 18.816406 26.230469 Z M 18.816406 29.964844 C 17.019531 29.964844 15.875 29.230469 15.875 28.71875 C 15.875 28.210938 17.019531 27.476562 18.816406 27.476562 C 20.617188 27.476562 21.761719 28.210938 21.761719 28.71875 C 21.761719 29.230469 20.617188 29.964844 18.816406 29.964844 Z M 15.085938 17.519531 L 22.550781 17.519531 C 25.644531 17.519531 28.152344 15.011719 28.152344 11.917969 L 28.152344 8.1875 C 28.152344 8.019531 28.085938 7.863281 27.96875 7.746094 C 27.851562 7.628906 27.695312 7.5625 27.527344 7.5625 L 26.285156 7.5625 C 25.15625 7.566406 24.042969 7.804688 23.011719 8.261719 C 23.035156 6.421875 22.316406 4.648438 21.019531 3.34375 L 19.257812 1.550781 C 19.144531 1.433594 18.984375 1.367188 18.816406 1.367188 C 18.652344 1.367188 18.492188 1.433594 18.375 1.550781 L 16.613281 3.3125 C 15.316406 4.617188 14.601562 6.390625 14.625 8.230469 C 13.589844 7.78125 12.476562 7.554688 11.351562 7.5625 L 10.105469 7.5625 C 9.761719 7.5625 9.484375 7.84375 9.484375 8.1875 L 9.484375 11.917969 C 9.484375 15.011719 11.992188 17.519531 15.082031 17.519531 Z M 26.90625 8.808594 L 26.90625 11.917969 C 26.90625 13.074219 26.449219 14.183594 25.632812 15 C 24.816406 15.816406 23.707031 16.273438 22.550781 16.273438 L 19.441406 16.273438 L 19.441406 15.652344 C 19.441406 13.835938 20.160156 12.097656 21.445312 10.8125 C 22.730469 9.53125 24.46875 8.808594 26.285156 8.808594 Z M 17.5 4.195312 L 18.816406 2.871094 L 20.136719 4.195312 C 21.382812 5.449219 21.964844 7.210938 21.710938 8.957031 C 20.421875 9.847656 19.414062 11.089844 18.816406 12.542969 C 18.21875 11.101562 17.210938 9.863281 15.925781 8.980469 C 15.660156 7.226562 16.246094 5.453125 17.5 4.195312 Z M 10.730469 8.808594 L 11.351562 8.808594 C 13.167969 8.808594 14.90625 9.53125 16.191406 10.8125 C 17.472656 12.097656 18.195312 13.835938 18.195312 15.652344 L 18.195312 16.273438 L 15.085938 16.273438 C 12.679688 16.273438 10.726562 14.324219 10.726562 11.917969 Z M 10.730469 8.808594 " fill-opacity="1" fill-rule="nonzero"/></svg>