<svg xmlns="http://www.w3.org/2000/svg" xmlns:xlink="http://www.w3.org/1999/xlink" width="50" zoomAndPan="magnify" viewBox="0 0 37.5 37.499999" height="50" preserveAspectRatio="xMidYMid meet" version="1.0"><defs><clipPath id="f16ba52278"><path d="M 0 1.480469 L 37.007812 1.480469 L 37.007812 35.527344 L 0 35.527344 Z M 0 1.480469 " clip-rule="nonzero"/></clipPath></defs><g clip-path="url(#f16ba52278)"><path fill="#612d91" d="M 35.777344 22.273438 C 34.355469 21.785156 33.050781 21.457031 31.808594 21.3125 C 32.308594 19.621094 32.992188 17.605469 35.183594 15.148438 L 36.132812 14.082031 L 34.710938 14.097656 C 32.976562 14.109375 31.347656 14.257812 29.808594 14.570312 C 29.597656 12.808594 29.140625 10.925781 28.445312 8.925781 L 28.238281 8.332031 L 27.644531 8.527344 C 25.6875 9.175781 23.953125 9.976562 22.503906 10.941406 C 22.265625 10.613281 22.027344 10.304688 21.792969 9.992188 C 20.710938 8.554688 19.703125 7.222656 19.082031 6.035156 L 18.519531 4.984375 L 17.957031 6.035156 C 17.316406 7.222656 16.3125 8.570312 15.242188 9.992188 C 15.007812 10.304688 14.769531 10.628906 14.53125 10.941406 C 13.066406 9.976562 11.347656 9.175781 9.390625 8.527344 L 8.800781 8.332031 L 8.59375 8.925781 C 7.894531 10.941406 7.4375 12.820312 7.230469 14.570312 C 5.703125 14.257812 4.058594 14.097656 2.324219 14.097656 L 0.902344 14.082031 L 1.851562 15.148438 C 4.042969 17.605469 4.726562 19.621094 5.230469 21.3125 C 4 21.457031 2.679688 21.785156 1.257812 22.273438 L 0 22.71875 L 1.125 23.414062 C 2.191406 24.082031 3.15625 25.652344 3.925781 26.910156 C 4.164062 27.296875 4.386719 27.652344 4.59375 27.976562 C 5.40625 29.175781 6.371094 30.257812 7.4375 31.074219 C 7.851562 31.398438 8.296875 31.679688 8.742188 31.917969 C 8.488281 31.371094 8.28125 30.660156 8.191406 30.050781 C 7.246094 29.324219 6.371094 28.363281 5.644531 27.265625 C 5.453125 26.984375 5.246094 26.628906 5.007812 26.242188 C 4.386719 25.222656 3.644531 24.007812 2.753906 23.117188 C 3.761719 22.820312 4.710938 22.628906 5.601562 22.539062 C 6.578125 25.488281 7.984375 27.445312 9.835938 28.6875 C 10.175781 28.453125 10.546875 28.125 10.84375 27.828125 C 9.035156 26.71875 7.675781 24.882812 6.742188 21.960938 C 6.679688 21.769531 6.59375 21.472656 6.503906 21.191406 C 6.015625 19.578125 5.453125 17.679688 3.6875 15.386719 C 6.339844 15.53125 8.710938 16.066406 10.785156 17.074219 C 9.539062 20.125 9.4375 23.339844 12.042969 26.523438 C 12.429688 26.066406 12.742188 25.652344 12.859375 25.429688 C 10.429688 22.15625 11.109375 18.882812 12.769531 15.859375 C 13.734375 14.082031 15.035156 12.347656 16.238281 10.746094 C 17.066406 9.636719 17.867188 8.585938 18.503906 7.578125 C 19.140625 8.585938 19.925781 9.636719 20.769531 10.746094 C 21.984375 12.363281 23.273438 14.082031 24.238281 15.859375 C 25.882812 18.894531 26.578125 22.15625 24.148438 25.429688 C 24.265625 25.652344 24.578125 26.066406 24.960938 26.523438 C 27.570312 23.339844 27.453125 20.125 26.222656 17.074219 C 28.28125 16.066406 30.664062 15.53125 33.316406 15.386719 C 31.554688 17.679688 30.976562 19.578125 30.503906 21.191406 C 30.414062 21.488281 30.324219 21.769531 30.265625 21.960938 C 29.332031 24.882812 27.96875 26.71875 26.164062 27.828125 C 26.472656 28.125 26.828125 28.453125 27.167969 28.6875 C 29.035156 27.429688 30.429688 25.472656 31.40625 22.539062 C 32.296875 22.628906 33.242188 22.820312 34.25 23.117188 C 33.378906 24.007812 32.636719 25.222656 32 26.242188 C 31.761719 26.628906 31.539062 26.984375 31.363281 27.265625 C 30.636719 28.347656 29.761719 29.308594 28.8125 30.050781 C 28.726562 30.660156 28.519531 31.371094 28.265625 31.917969 C 28.710938 31.679688 29.15625 31.398438 29.570312 31.074219 C 30.636719 30.257812 31.613281 29.175781 32.414062 27.976562 C 32.636719 27.652344 32.84375 27.296875 33.082031 26.910156 C 33.851562 25.652344 34.8125 24.082031 35.878906 23.414062 L 37.007812 22.71875 Z M 11.671875 15.265625 C 11.554688 15.488281 11.4375 15.710938 11.332031 15.933594 C 10.429688 15.503906 9.480469 15.148438 8.472656 14.867188 C 8.636719 13.339844 9.007812 11.695312 9.585938 9.949219 C 11.171875 10.511719 12.578125 11.175781 13.777344 11.960938 C 13.023438 13.03125 12.28125 14.125 11.671875 15.265625 Z M 25.703125 15.917969 C 25.597656 15.695312 25.480469 15.472656 25.363281 15.25 C 24.738281 14.109375 24.015625 13.015625 23.242188 11.960938 C 24.445312 11.175781 25.851562 10.496094 27.4375 9.933594 C 28.015625 11.679688 28.382812 13.324219 28.546875 14.851562 C 27.570312 15.132812 26.605469 15.488281 25.703125 15.917969 Z M 11.941406 5.800781 C 11.941406 5.296875 12.339844 4.894531 12.84375 4.894531 C 13.347656 4.894531 13.746094 5.296875 13.746094 5.800781 C 13.746094 6.304688 13.347656 6.703125 12.84375 6.703125 C 12.355469 6.703125 11.941406 6.304688 11.941406 5.800781 Z M 23.273438 5.800781 C 23.273438 5.296875 23.671875 4.894531 24.175781 4.894531 C 24.679688 4.894531 25.082031 5.296875 25.082031 5.800781 C 25.082031 6.304688 24.679688 6.703125 24.175781 6.703125 C 23.6875 6.703125 23.273438 6.304688 23.273438 5.800781 Z M 17.613281 2.390625 C 17.613281 1.890625 18.015625 1.488281 18.519531 1.488281 C 19.023438 1.488281 19.421875 1.890625 19.421875 2.390625 C 19.421875 2.894531 19.023438 3.296875 18.519531 3.296875 C 18.015625 3.296875 17.613281 2.894531 17.613281 2.390625 Z M 27.910156 29.503906 C 27.941406 29.578125 27.878906 29.679688 27.792969 29.785156 C 27.554688 30.023438 27.007812 30.15625 26.695312 30.125 C 25.820312 30.050781 24.679688 29.222656 24.175781 28.808594 C 22.382812 27.371094 21.984375 26.523438 21.851562 26.273438 C 21.734375 26.050781 21.539062 23.578125 21.347656 23.117188 C 20.828125 23.886719 20.371094 24.6875 20.371094 26.363281 C 20.371094 28.316406 21.390625 29.265625 22.027344 30.910156 C 22.8125 30.660156 23.660156 30.4375 24.53125 30.304688 C 26.324219 30.023438 28.578125 29.800781 26.859375 32.257812 C 26.101562 33.339844 24.488281 33.738281 23.347656 34.035156 C 23.15625 34.082031 22.949219 34.125 22.726562 34.183594 C 24 34.378906 25.230469 34.585938 25.421875 34.671875 C 25.820312 34.878906 26.015625 35.519531 20.902344 35.089844 L 20.578125 35.058594 C 20.578125 35.058594 20.472656 35.042969 20.28125 35.027344 C 19.585938 34.96875 19.007812 34.910156 18.519531 34.851562 C 18.027344 34.910156 17.453125 34.96875 16.753906 35.027344 C 16.5625 35.042969 16.457031 35.058594 16.457031 35.058594 L 16.132812 35.089844 C 11.007812 35.519531 11.214844 34.878906 11.613281 34.671875 C 11.792969 34.570312 13.035156 34.378906 14.296875 34.183594 C 14.074219 34.140625 13.867188 34.09375 13.671875 34.035156 C 12.519531 33.738281 10.917969 33.339844 10.164062 32.257812 C 8.445312 29.8125 10.695312 30.023438 12.488281 30.304688 C 13.363281 30.4375 14.207031 30.660156 14.992188 30.910156 C 15.644531 29.265625 16.652344 28.304688 16.652344 26.363281 C 16.652344 24.6875 16.191406 23.886719 15.671875 23.117188 C 15.480469 23.59375 15.289062 26.050781 15.171875 26.273438 C 15.035156 26.511719 14.636719 27.355469 12.84375 28.808594 C 12.339844 29.222656 11.199219 30.066406 10.324219 30.125 C 10.015625 30.15625 9.464844 30.023438 9.230469 29.785156 C 9.125 29.679688 9.066406 29.578125 9.109375 29.503906 C 9.171875 29.382812 9.539062 29.445312 10.355469 29.726562 C 11.082031 29.726562 13.703125 26.808594 13.957031 26.035156 C 14.074219 25.679688 14.042969 24.628906 14.101562 22.363281 C 14.164062 20.097656 14.992188 19.636719 16.175781 19.296875 C 17.363281 18.941406 17.777344 17.753906 17.777344 17.753906 C 17.820312 17.5625 17.820312 17.398438 17.820312 17.324219 C 17.808594 17.101562 17.570312 16.671875 17.304688 16.363281 C 17.035156 16.050781 16.296875 14.613281 16.578125 13.28125 C 16.859375 11.933594 18.191406 11.828125 18.503906 11.828125 C 18.8125 11.828125 20.132812 11.949219 20.429688 13.28125 C 20.710938 14.628906 19.96875 16.050781 19.71875 16.363281 C 19.453125 16.671875 19.214844 17.089844 19.199219 17.324219 C 19.199219 17.398438 19.214844 17.5625 19.242188 17.753906 C 19.242188 17.753906 19.644531 18.941406 20.84375 19.296875 C 22.027344 19.652344 22.875 20.097656 22.917969 22.363281 C 22.976562 24.628906 22.949219 25.679688 23.066406 26.035156 C 23.304688 26.808594 25.941406 29.726562 26.667969 29.726562 C 27.480469 29.445312 27.851562 29.398438 27.910156 29.503906 Z M 27.910156 29.503906 " fill-opacity="1" fill-rule="nonzero"/></g></svg>