<svg xmlns="http://www.w3.org/2000/svg" xmlns:xlink="http://www.w3.org/1999/xlink" width="50" zoomAndPan="magnify" viewBox="0 0 37.5 37.499999" height="50" preserveAspectRatio="xMidYMid meet" version="1.0"><path fill="#612d91" d="M 4.109375 10.085938 C 4.167969 10.199219 4.277344 10.273438 4.402344 10.28125 L 7.058594 10.503906 L 8.796875 12.519531 C 8.867188 12.601562 8.964844 12.644531 9.070312 12.644531 C 9.089844 12.644531 9.109375 12.644531 9.128906 12.640625 C 9.25 12.621094 9.355469 12.539062 9.402344 12.425781 L 10.433594 9.96875 L 12.890625 8.941406 C 13.007812 8.890625 13.089844 8.785156 13.109375 8.664062 C 13.128906 8.539062 13.082031 8.414062 12.988281 8.332031 L 10.96875 6.597656 L 10.75 3.941406 C 10.738281 3.816406 10.664062 3.707031 10.550781 3.648438 C 10.441406 3.59375 10.308594 3.597656 10.203125 3.664062 L 7.921875 5.046875 L 5.328125 4.433594 C 5.207031 4.40625 5.078125 4.441406 4.992188 4.53125 C 4.902344 4.617188 4.867188 4.746094 4.894531 4.867188 L 5.507812 7.460938 L 4.125 9.734375 C 4.058594 9.84375 4.054688 9.976562 4.109375 10.085938 Z M 6.199219 7.707031 C 6.25 7.628906 6.265625 7.53125 6.242188 7.4375 L 5.730469 5.269531 L 7.902344 5.78125 C 7.992188 5.804688 8.089844 5.789062 8.171875 5.738281 L 10.078125 4.582031 L 10.261719 6.800781 C 10.269531 6.898438 10.3125 6.984375 10.386719 7.046875 L 12.074219 8.5 L 10.019531 9.359375 C 9.929688 9.394531 9.863281 9.464844 9.824219 9.554688 L 8.964844 11.609375 L 7.507812 9.917969 C 7.445312 9.847656 7.359375 9.804688 7.265625 9.796875 L 5.042969 9.613281 Z M 6.199219 7.707031 " fill-opacity="1" fill-rule="nonzero"/><path fill="#612d91" d="M 4.992188 31.554688 C 5.082031 31.640625 5.207031 31.675781 5.332031 31.648438 L 7.921875 31.035156 L 10.199219 32.421875 C 10.257812 32.457031 10.320312 32.472656 10.386719 32.472656 C 10.441406 32.472656 10.5 32.460938 10.550781 32.433594 C 10.660156 32.378906 10.734375 32.265625 10.746094 32.140625 L 10.964844 29.484375 L 12.984375 27.746094 C 13.078125 27.664062 13.125 27.539062 13.105469 27.417969 C 13.085938 27.292969 13.003906 27.1875 12.886719 27.140625 L 10.429688 26.109375 L 9.402344 23.652344 C 9.355469 23.535156 9.25 23.453125 9.125 23.433594 C 9.003906 23.414062 8.878906 23.460938 8.796875 23.554688 L 7.058594 25.578125 L 4.40625 25.796875 C 4.28125 25.804688 4.167969 25.878906 4.113281 25.992188 C 4.054688 26.101562 4.0625 26.234375 4.125 26.34375 L 5.507812 28.621094 L 4.898438 31.214844 C 4.867188 31.335938 4.90625 31.464844 4.992188 31.554688 Z M 5.046875 26.464844 L 7.265625 26.285156 C 7.359375 26.273438 7.449219 26.230469 7.507812 26.160156 L 8.960938 24.46875 L 9.820312 26.527344 C 9.859375 26.613281 9.929688 26.683594 10.015625 26.71875 L 12.070312 27.582031 L 10.382812 29.035156 C 10.308594 29.097656 10.265625 29.183594 10.257812 29.277344 L 10.074219 31.5 L 8.171875 30.34375 C 8.113281 30.308594 8.050781 30.289062 7.984375 30.289062 C 7.957031 30.289062 7.929688 30.292969 7.902344 30.300781 L 5.734375 30.8125 L 6.246094 28.640625 C 6.265625 28.550781 6.25 28.453125 6.203125 28.371094 Z M 5.046875 26.464844 " fill-opacity="1" fill-rule="nonzero"/><path fill="#612d91" d="M 32.894531 25.992188 C 32.839844 25.882812 32.730469 25.808594 32.605469 25.796875 L 29.949219 25.578125 L 28.210938 23.5625 C 28.128906 23.464844 28.003906 23.417969 27.878906 23.441406 C 27.753906 23.460938 27.652344 23.542969 27.601562 23.65625 L 26.574219 26.113281 L 24.113281 27.140625 C 24 27.191406 23.917969 27.292969 23.898438 27.417969 C 23.878906 27.542969 23.925781 27.667969 24.019531 27.75 L 26.039062 29.484375 L 26.257812 32.140625 C 26.269531 32.265625 26.34375 32.375 26.453125 32.429688 C 26.503906 32.457031 26.5625 32.472656 26.617188 32.472656 C 26.683594 32.472656 26.746094 32.453125 26.804688 32.417969 L 29.082031 31.035156 L 31.675781 31.648438 C 31.800781 31.675781 31.925781 31.640625 32.015625 31.550781 C 32.105469 31.460938 32.140625 31.335938 32.113281 31.214844 L 31.5 28.621094 L 32.882812 26.34375 C 32.949219 26.238281 32.953125 26.105469 32.894531 25.992188 Z M 30.804688 28.371094 C 30.757812 28.453125 30.742188 28.550781 30.761719 28.644531 L 31.273438 30.8125 L 29.105469 30.300781 C 29.011719 30.277344 28.917969 30.292969 28.835938 30.34375 L 26.929688 31.5 L 26.746094 29.277344 C 26.738281 29.183594 26.695312 29.097656 26.621094 29.035156 L 24.933594 27.582031 L 26.988281 26.722656 C 27.074219 26.683594 27.144531 26.617188 27.183594 26.527344 L 28.042969 24.472656 L 29.496094 26.160156 C 29.558594 26.234375 29.648438 26.277344 29.742188 26.285156 L 31.964844 26.46875 Z M 30.804688 28.371094 " fill-opacity="1" fill-rule="nonzero"/><path fill="#612d91" d="M 32.015625 4.527344 C 31.925781 4.441406 31.796875 4.40625 31.675781 4.433594 L 29.082031 5.042969 L 26.808594 3.660156 C 26.699219 3.59375 26.570312 3.589844 26.457031 3.648438 C 26.34375 3.703125 26.269531 3.816406 26.261719 3.9375 L 26.042969 6.597656 L 24.023438 8.335938 C 23.929688 8.417969 23.882812 8.542969 23.902344 8.664062 C 23.921875 8.789062 24.003906 8.890625 24.121094 8.941406 L 26.574219 9.96875 L 27.605469 12.429688 C 27.652344 12.542969 27.757812 12.625 27.882812 12.644531 C 27.898438 12.648438 27.917969 12.652344 27.9375 12.652344 C 28.042969 12.652344 28.140625 12.605469 28.210938 12.523438 L 29.949219 10.503906 L 32.601562 10.285156 C 32.726562 10.277344 32.835938 10.203125 32.894531 10.089844 C 32.949219 9.980469 32.945312 9.847656 32.882812 9.738281 L 31.5 7.460938 L 32.109375 4.867188 C 32.136719 4.746094 32.101562 4.617188 32.015625 4.527344 Z M 31.960938 9.613281 L 29.742188 9.796875 C 29.648438 9.804688 29.558594 9.851562 29.496094 9.921875 L 28.042969 11.613281 L 27.183594 9.554688 C 27.148438 9.46875 27.078125 9.398438 26.992188 9.363281 L 24.9375 8.5 L 26.625 7.046875 C 26.695312 6.984375 26.742188 6.898438 26.75 6.800781 L 26.933594 4.582031 L 28.835938 5.738281 C 28.917969 5.789062 29.015625 5.804688 29.105469 5.78125 L 31.273438 5.269531 L 30.761719 7.4375 C 30.742188 7.53125 30.753906 7.628906 30.804688 7.707031 Z M 31.960938 9.613281 " fill-opacity="1" fill-rule="nonzero"/><path fill="#612d91" d="M 25.546875 16.605469 C 26.144531 14.113281 24.734375 12.261719 23.171875 11.597656 C 21.859375 11.039062 19.90625 11.074219 18.503906 12.859375 C 17.101562 11.074219 15.148438 11.039062 13.835938 11.597656 C 12.273438 12.261719 10.863281 14.113281 11.457031 16.605469 C 12.480469 20.878906 18.0625 24.757812 18.300781 24.917969 C 18.359375 24.960938 18.433594 24.984375 18.503906 24.984375 C 18.574219 24.984375 18.644531 24.960938 18.707031 24.917969 C 18.945312 24.757812 24.527344 20.878906 25.546875 16.605469 Z M 18.503906 24.179688 C 17.488281 23.4375 13.011719 20 12.160156 16.4375 C 11.660156 14.339844 12.78125 12.832031 14.117188 12.261719 C 14.492188 12.105469 14.925781 12.003906 15.382812 12.003906 C 16.34375 12.003906 17.40625 12.441406 18.199219 13.675781 C 18.265625 13.78125 18.378906 13.84375 18.503906 13.84375 C 18.625 13.84375 18.742188 13.78125 18.808594 13.675781 C 19.976562 11.847656 21.738281 11.773438 22.890625 12.261719 C 24.222656 12.832031 25.347656 14.339844 24.847656 16.4375 C 23.996094 20 19.519531 23.4375 18.503906 24.179688 Z M 18.503906 24.179688 " fill-opacity="1" fill-rule="nonzero"/><path fill="#612d91" d="M 21.800781 13.835938 C 21.609375 13.78125 21.410156 13.894531 21.359375 14.089844 C 21.304688 14.28125 21.417969 14.480469 21.613281 14.53125 C 22.078125 14.660156 22.527344 15.125 22.417969 15.839844 C 22.386719 16.039062 22.519531 16.222656 22.71875 16.253906 C 22.738281 16.253906 22.753906 16.257812 22.773438 16.257812 C 22.949219 16.257812 23.101562 16.128906 23.128906 15.949219 C 23.300781 14.847656 22.589844 14.050781 21.800781 13.835938 Z M 21.800781 13.835938 " fill-opacity="1" fill-rule="nonzero"/><path fill="#612d91" d="M 22.558594 17.082031 C 22.386719 16.984375 22.164062 17.042969 22.066406 17.21875 C 21.300781 18.558594 19.675781 20.003906 19.660156 20.015625 C 19.511719 20.148438 19.496094 20.375 19.628906 20.527344 C 19.699219 20.605469 19.800781 20.648438 19.898438 20.648438 C 19.984375 20.648438 20.070312 20.617188 20.136719 20.558594 C 20.207031 20.496094 21.867188 19.023438 22.691406 17.574219 C 22.792969 17.402344 22.730469 17.183594 22.558594 17.082031 Z M 22.558594 17.082031 " fill-opacity="1" fill-rule="nonzero"/><path fill="#612d91" d="M 21.433594 6.539062 C 21.433594 4.921875 20.117188 3.609375 18.503906 3.609375 C 16.886719 3.609375 15.574219 4.921875 15.574219 6.539062 C 15.574219 8.15625 16.886719 9.46875 18.503906 9.46875 C 20.117188 9.46875 21.433594 8.15625 21.433594 6.539062 Z M 16.296875 6.539062 C 16.296875 5.320312 17.285156 4.328125 18.503906 4.328125 C 19.71875 4.328125 20.710938 5.320312 20.710938 6.539062 C 20.710938 7.757812 19.71875 8.75 18.503906 8.75 C 17.285156 8.75 16.296875 7.757812 16.296875 6.539062 Z M 16.296875 6.539062 " fill-opacity="1" fill-rule="nonzero"/><path fill="#612d91" d="M 7 20.96875 C 8.617188 20.96875 9.933594 19.65625 9.933594 18.039062 C 9.933594 16.425781 8.617188 15.113281 7 15.113281 C 5.386719 15.113281 4.070312 16.425781 4.070312 18.039062 C 4.070312 19.65625 5.386719 20.96875 7 20.96875 Z M 7 15.832031 C 8.21875 15.832031 9.210938 16.824219 9.210938 18.039062 C 9.210938 19.257812 8.21875 20.246094 7 20.246094 C 5.785156 20.246094 4.792969 19.257812 4.792969 18.039062 C 4.792969 16.824219 5.785156 15.832031 7 15.832031 Z M 7 15.832031 " fill-opacity="1" fill-rule="nonzero"/><path fill="#612d91" d="M 15.574219 29.542969 C 15.574219 31.160156 16.886719 32.472656 18.503906 32.472656 C 20.117188 32.472656 21.433594 31.160156 21.433594 29.542969 C 21.433594 27.925781 20.117188 26.613281 18.503906 26.613281 C 16.886719 26.613281 15.574219 27.925781 15.574219 29.542969 Z M 20.710938 29.542969 C 20.710938 30.761719 19.71875 31.75 18.503906 31.75 C 17.285156 31.75 16.296875 30.761719 16.296875 29.542969 C 16.296875 28.324219 17.285156 27.332031 18.503906 27.332031 C 19.71875 27.332031 20.710938 28.324219 20.710938 29.542969 Z M 20.710938 29.542969 " fill-opacity="1" fill-rule="nonzero"/><path fill="#612d91" d="M 30.003906 15.113281 C 28.390625 15.113281 27.074219 16.425781 27.074219 18.039062 C 27.074219 19.65625 28.390625 20.96875 30.003906 20.96875 C 31.621094 20.96875 32.9375 19.65625 32.9375 18.039062 C 32.9375 16.425781 31.621094 15.113281 30.003906 15.113281 Z M 30.003906 20.246094 C 28.785156 20.246094 27.796875 19.257812 27.796875 18.039062 C 27.796875 16.824219 28.785156 15.832031 30.003906 15.832031 C 31.222656 15.832031 32.214844 16.824219 32.214844 18.039062 C 32.214844 19.257812 31.222656 20.246094 30.003906 20.246094 Z M 30.003906 20.246094 " fill-opacity="1" fill-rule="nonzero"/></svg>