<svg xmlns="http://www.w3.org/2000/svg" xmlns:xlink="http://www.w3.org/1999/xlink" width="50" zoomAndPan="magnify" viewBox="0 0 37.5 37.499999" height="50" preserveAspectRatio="xMidYMid meet" version="1.0"><path fill="#612d91" d="M 7.121094 22.777344 C 7.636719 22.359375 8.289062 22.105469 8.988281 22.105469 C 9.832031 22.105469 10.601562 22.464844 11.144531 23.035156 C 11.691406 23.605469 12.027344 24.390625 12.027344 25.253906 C 12.027344 26.007812 11.769531 26.703125 11.335938 27.246094 L 11.335938 27.253906 C 11.257812 27.351562 11.1875 27.421875 11.121094 27.492188 L 9.683594 29.082031 C 11.960938 31.304688 15.070312 32.683594 18.503906 32.683594 C 19.324219 32.683594 20.128906 32.605469 20.902344 32.457031 C 21.1875 32.402344 21.460938 32.585938 21.515625 32.871094 C 21.574219 33.15625 21.386719 33.433594 21.101562 33.488281 C 20.261719 33.648438 19.390625 33.738281 18.503906 33.738281 C 14.804688 33.738281 11.4375 32.25 8.980469 29.859375 L 8.476562 30.421875 C 8.113281 30.828125 7.613281 31.042969 7.113281 31.042969 C 6.617188 31.042969 6.125 30.832031 5.761719 30.429688 L 3.109375 27.476562 C 3.039062 27.402344 2.976562 27.328125 2.925781 27.265625 L 2.910156 27.253906 C 2.480469 26.710938 2.214844 26.011719 2.214844 25.253906 C 2.214844 24.390625 2.550781 23.605469 3.097656 23.035156 C 3.648438 22.464844 4.410156 22.105469 5.253906 22.105469 C 5.960938 22.105469 6.609375 22.359375 7.121094 22.777344 Z M 6.785156 23.90625 L 6.757812 23.875 L 6.726562 23.847656 C 6.359375 23.421875 5.835938 23.15625 5.253906 23.15625 C 4.710938 23.15625 4.222656 23.382812 3.859375 23.765625 C 3.492188 24.140625 3.265625 24.664062 3.265625 25.253906 C 3.265625 25.769531 3.441406 26.226562 3.730469 26.597656 C 3.78125 26.65625 3.835938 26.714844 3.878906 26.761719 L 3.882812 26.769531 L 3.890625 26.773438 L 6.542969 29.726562 C 6.714844 29.914062 6.914062 29.992188 7.113281 29.996094 C 7.3125 29.992188 7.519531 29.910156 7.695312 29.71875 L 10.347656 26.78125 L 10.355469 26.777344 L 10.355469 26.769531 C 10.425781 26.699219 10.472656 26.648438 10.503906 26.609375 L 10.507812 26.601562 C 10.800781 26.230469 10.980469 25.769531 10.980469 25.253906 C 10.980469 24.664062 10.75 24.140625 10.386719 23.765625 C 10.019531 23.382812 9.53125 23.15625 8.988281 23.15625 C 8.410156 23.15625 7.886719 23.421875 7.527344 23.84375 L 7.496094 23.871094 L 7.457031 23.910156 L 7.410156 23.941406 L 7.371094 23.964844 L 7.320312 23.988281 L 7.277344 24.007812 L 7.175781 24.023438 L 7.128906 24.027344 L 7.078125 24.023438 L 6.976562 24.007812 L 6.882812 23.96875 L 6.84375 23.945312 L 6.796875 23.910156 Z M 6.785156 23.90625 " fill-opacity="1" fill-rule="nonzero"/><path fill="#612d91" d="M 28.863281 11.183594 C 30.914062 13.570312 32.160156 16.683594 32.160156 20.078125 C 32.160156 20.769531 32.105469 21.457031 32.007812 22.121094 C 32.757812 22.195312 33.421875 22.535156 33.898438 23.035156 C 34.445312 23.605469 34.78125 24.390625 34.78125 25.253906 C 34.78125 26.007812 34.523438 26.703125 34.089844 27.246094 L 34.085938 27.25 L 34.085938 27.253906 C 34.011719 27.351562 33.9375 27.421875 33.875 27.492188 L 31.230469 30.421875 C 30.867188 30.828125 30.367188 31.042969 29.863281 31.042969 C 29.367188 31.042969 28.875 30.832031 28.515625 30.429688 L 25.863281 27.476562 C 25.792969 27.402344 25.730469 27.328125 25.679688 27.265625 L 25.664062 27.253906 C 25.234375 26.710938 24.96875 26.011719 24.96875 25.253906 C 24.96875 24.390625 25.304688 23.605469 25.851562 23.035156 C 26.398438 22.464844 27.164062 22.105469 28.007812 22.105469 C 28.714844 22.105469 29.363281 22.359375 29.875 22.777344 C 30.179688 22.53125 30.539062 22.339844 30.921875 22.230469 C 31.039062 21.53125 31.105469 20.8125 31.105469 20.078125 C 31.105469 18.507812 30.820312 17.007812 30.296875 15.621094 C 29.773438 14.238281 29.015625 12.96875 28.066406 11.867188 C 27.875 11.644531 27.898438 11.316406 28.121094 11.125 C 28.339844 10.9375 28.671875 10.960938 28.863281 11.183594 Z M 30.210938 23.910156 L 30.164062 23.941406 L 30.125 23.964844 L 30.074219 23.988281 L 30.03125 24.007812 L 29.929688 24.023438 L 29.882812 24.027344 L 29.832031 24.023438 L 29.730469 24.007812 L 29.636719 23.96875 L 29.597656 23.945312 L 29.550781 23.910156 L 29.539062 23.90625 L 29.511719 23.875 L 29.480469 23.847656 C 29.113281 23.421875 28.585938 23.15625 28.007812 23.15625 C 27.464844 23.15625 26.976562 23.382812 26.613281 23.765625 C 26.246094 24.140625 26.019531 24.664062 26.019531 25.253906 C 26.019531 25.769531 26.195312 26.226562 26.484375 26.597656 C 26.535156 26.65625 26.585938 26.714844 26.632812 26.761719 L 26.636719 26.769531 L 26.644531 26.773438 L 29.296875 29.726562 C 29.464844 29.914062 29.664062 29.992188 29.863281 29.996094 C 30.066406 29.992188 30.273438 29.910156 30.449219 29.71875 L 33.101562 26.78125 L 33.105469 26.777344 L 33.109375 26.769531 C 33.179688 26.699219 33.226562 26.648438 33.257812 26.609375 L 33.261719 26.601562 C 33.554688 26.230469 33.734375 25.769531 33.734375 25.253906 C 33.734375 24.664062 33.503906 24.140625 33.140625 23.765625 C 32.773438 23.382812 32.285156 23.15625 31.742188 23.15625 C 31.164062 23.15625 30.640625 23.421875 30.28125 23.84375 L 30.25 23.871094 Z M 30.210938 23.910156 " fill-opacity="1" fill-rule="nonzero"/><path fill="#612d91" d="M 18.105469 4.199219 C 17.734375 3.769531 17.210938 3.511719 16.632812 3.511719 C 16.089844 3.511719 15.601562 3.738281 15.234375 4.113281 C 14.871094 4.496094 14.640625 5.019531 14.640625 5.605469 C 14.640625 6.121094 14.820312 6.578125 15.109375 6.949219 C 15.160156 7.011719 15.210938 7.066406 15.257812 7.113281 L 15.265625 7.128906 L 17.921875 10.078125 C 18.089844 10.265625 18.289062 10.347656 18.488281 10.347656 C 18.691406 10.347656 18.898438 10.261719 19.070312 10.070312 L 21.722656 7.132812 L 21.730469 7.128906 L 21.734375 7.121094 C 21.800781 7.050781 21.851562 7 21.882812 6.960938 L 21.886719 6.953125 C 22.179688 6.582031 22.355469 6.121094 22.355469 5.605469 C 22.355469 5.019531 22.128906 4.496094 21.761719 4.113281 C 21.398438 3.738281 20.910156 3.511719 20.367188 3.511719 C 19.789062 3.511719 19.261719 3.769531 18.902344 4.195312 L 18.871094 4.222656 L 18.84375 4.257812 L 18.835938 4.257812 L 18.789062 4.296875 L 18.75 4.320312 L 18.699219 4.339844 L 18.65625 4.359375 L 18.605469 4.367188 L 18.554688 4.378906 L 18.457031 4.378906 L 18.40625 4.367188 L 18.355469 4.359375 L 18.308594 4.34375 L 18.261719 4.320312 L 18.21875 4.296875 L 18.171875 4.261719 L 18.164062 4.257812 Z M 9.75 11.011719 C 8.363281 12.347656 7.285156 13.996094 6.625 15.847656 C 6.527344 16.117188 6.226562 16.261719 5.953125 16.164062 C 5.683594 16.066406 5.539062 15.765625 5.636719 15.492188 C 7.019531 11.609375 10.109375 8.539062 14.007812 7.183594 C 13.746094 6.71875 13.59375 6.179688 13.59375 5.605469 C 13.59375 4.746094 13.929688 3.960938 14.476562 3.386719 C 15.023438 2.820312 15.789062 2.457031 16.632812 2.457031 C 17.335938 2.457031 17.984375 2.710938 18.5 3.128906 C 19.011719 2.710938 19.664062 2.457031 20.367188 2.457031 C 21.210938 2.457031 21.976562 2.820312 22.523438 3.386719 C 23.070312 3.960938 23.40625 4.746094 23.40625 5.605469 C 23.40625 6.363281 23.144531 7.054688 22.714844 7.601562 L 22.710938 7.601562 L 22.710938 7.605469 C 22.636719 7.699219 22.5625 7.773438 22.496094 7.84375 L 19.851562 10.773438 C 19.492188 11.179688 18.992188 11.398438 18.488281 11.394531 L 18.476562 11.394531 C 17.984375 11.394531 17.496094 11.179688 17.136719 10.78125 L 14.699219 8.0625 L 14.695312 8.0625 C 12.816406 8.65625 11.132812 9.675781 9.75 11.011719 Z M 9.75 11.011719 " fill-opacity="1" fill-rule="nonzero"/></svg>