<svg xmlns="http://www.w3.org/2000/svg" xmlns:xlink="http://www.w3.org/1999/xlink" width="50" zoomAndPan="magnify" viewBox="0 0 37.5 37.499999" height="50" preserveAspectRatio="xMidYMid meet" version="1.0"><path fill="#612d91" d="M 30.523438 12.523438 C 30.285156 11.980469 28.582031 11.679688 27.585938 11.566406 C 27.824219 9.976562 27.613281 8.449219 26.957031 6.984375 C 26.933594 6.960938 26.910156 6.941406 26.878906 6.925781 C 26.5625 6.71875 24.816406 7.132812 23.269531 8.054688 C 22.640625 6.523438 21.65625 5.273438 20.316406 4.304688 C 20.238281 4.285156 20.160156 4.285156 20.082031 4.304688 C 18.738281 5.273438 17.753906 6.519531 17.125 8.050781 C 15.582031 7.125 13.832031 6.714844 13.515625 6.921875 C 13.488281 6.9375 13.464844 6.957031 13.441406 6.976562 C 12.761719 8.445312 12.550781 9.980469 12.804688 11.578125 C 11.808594 11.671875 10.113281 11.980469 9.878906 12.535156 C 9.875 12.546875 9.875 12.5625 9.878906 12.578125 C 9.875 12.605469 9.875 12.632812 9.878906 12.664062 C 10.007812 13.882812 10.40625 15.007812 11.074219 16.039062 C 11.742188 17.066406 12.609375 17.890625 13.675781 18.5 C 14.8125 19.144531 16.039062 19.464844 17.347656 19.457031 C 18.179688 19.453125 18.992188 19.328125 19.785156 19.078125 C 20.046875 19.097656 20.308594 19.097656 20.570312 19.078125 C 21.375 19.332031 22.199219 19.460938 23.046875 19.460938 C 24.355469 19.46875 25.578125 19.148438 26.71875 18.503906 C 27.773438 17.882812 28.632812 17.0625 29.300781 16.035156 C 29.96875 15.007812 30.371094 13.882812 30.507812 12.667969 C 30.511719 12.636719 30.511719 12.605469 30.507812 12.570312 C 30.519531 12.558594 30.523438 12.542969 30.523438 12.523438 Z M 26.304688 7.859375 C 26.464844 8.328125 26.578125 8.808594 26.644531 9.300781 C 26.714844 9.792969 26.734375 10.285156 26.710938 10.78125 C 26.6875 11.273438 26.617188 11.765625 26.5 12.246094 C 26.382812 12.726562 26.222656 13.195312 26.019531 13.648438 C 25.816406 14.097656 25.574219 14.527344 25.289062 14.933594 C 25.003906 15.339844 24.683594 15.71875 24.328125 16.0625 C 23.972656 16.410156 23.589844 16.71875 23.175781 16.992188 C 22.761719 17.265625 22.328125 17.5 21.871094 17.691406 C 22.5625 16.855469 23.097656 15.929688 23.46875 14.90625 C 23.839844 13.886719 24.03125 12.832031 24.035156 11.746094 C 24.035156 10.804688 23.890625 9.882812 23.605469 8.988281 C 24.4375 8.449219 25.339844 8.074219 26.304688 7.859375 Z M 20.195312 5.390625 C 21.101562 6.195312 21.804688 7.152344 22.304688 8.253906 C 22.804688 9.355469 23.058594 10.515625 23.066406 11.726562 C 23.058594 12.9375 22.804688 14.09375 22.304688 15.199219 C 21.804688 16.300781 21.101562 17.257812 20.195312 18.0625 C 19.292969 17.253906 18.589844 16.300781 18.089844 15.199219 C 17.589844 14.09375 17.335938 12.9375 17.328125 11.726562 C 17.335938 10.515625 17.589844 9.359375 18.089844 8.253906 C 18.589844 7.152344 19.292969 6.195312 20.195312 5.390625 Z M 14.085938 7.859375 C 15.054688 8.066406 15.957031 8.4375 16.792969 8.96875 C 16.503906 9.863281 16.359375 10.785156 16.363281 11.726562 C 16.363281 12.816406 16.550781 13.871094 16.921875 14.898438 C 17.292969 15.921875 17.824219 16.851562 18.519531 17.691406 C 18.0625 17.5 17.628906 17.265625 17.21875 16.992188 C 16.804688 16.71875 16.421875 16.40625 16.070312 16.0625 C 15.714844 15.714844 15.394531 15.339844 15.113281 14.9375 C 14.828125 14.53125 14.585938 14.101562 14.382812 13.652344 C 14.179688 13.199219 14.019531 12.734375 13.902344 12.253906 C 13.785156 11.773438 13.714844 11.285156 13.6875 10.792969 C 13.664062 10.296875 13.683594 9.804688 13.75 9.316406 C 13.816406 8.828125 13.929688 8.347656 14.085938 7.878906 Z M 14.132812 17.664062 C 13.269531 17.15625 12.550781 16.492188 11.980469 15.667969 C 11.40625 14.84375 11.03125 13.941406 10.855469 12.953125 C 11.539062 12.699219 12.25 12.554688 12.980469 12.515625 C 13.179688 13.316406 13.484375 14.074219 13.898438 14.785156 C 14.867188 16.453125 16.226562 17.683594 17.980469 18.476562 C 16.613281 18.613281 15.332031 18.34375 14.132812 17.664062 Z M 26.261719 17.664062 C 25.066406 18.34375 23.78125 18.613281 22.410156 18.476562 C 24.160156 17.683594 25.515625 16.453125 26.476562 14.785156 C 26.886719 14.070312 27.191406 13.316406 27.386719 12.515625 C 28.121094 12.554688 28.832031 12.699219 29.519531 12.953125 C 29.34375 13.9375 28.972656 14.84375 28.402344 15.664062 C 27.835938 16.484375 27.121094 17.152344 26.261719 17.664062 Z M 26.261719 17.664062 " fill-opacity="1" fill-rule="nonzero"/><path fill="#612d91" d="M 26.867188 2.394531 C 26.589844 2.273438 20.082031 -0.53125 14.171875 2.058594 C 10.785156 3.53125 8.308594 6.484375 6.808594 10.859375 L 6.183594 13.304688 C 6.042969 13.859375 6.125 14.378906 6.425781 14.863281 C 6.546875 15.050781 6.605469 15.253906 6.601562 15.480469 C 6.59375 15.703125 6.527344 15.90625 6.398438 16.085938 L 3.644531 19.847656 C 3.449219 20.121094 3.394531 20.414062 3.476562 20.738281 C 3.5625 21.058594 3.757812 21.289062 4.058594 21.425781 L 5.59375 22.132812 L 5.285156 23.402344 C 5.242188 23.585938 5.265625 23.757812 5.355469 23.921875 C 5.449219 24.085938 5.582031 24.199219 5.761719 24.257812 C 5.808594 24.269531 5.855469 24.28125 5.90625 24.285156 L 6.058594 24.285156 L 6.03125 24.3125 C 5.820312 24.441406 5.710938 24.628906 5.695312 24.875 C 5.675781 25.152344 5.78125 25.371094 6.011719 25.527344 L 6.640625 25.949219 C 6.679688 25.976562 6.703125 26.015625 6.714844 26.0625 C 6.734375 26.109375 6.734375 26.152344 6.714844 26.199219 L 6.472656 26.53125 C 6.167969 26.976562 6.003906 27.464844 5.992188 28.003906 C 5.976562 28.542969 6.109375 29.039062 6.394531 29.5 C 6.675781 29.957031 7.0625 30.300781 7.550781 30.527344 C 8.039062 30.753906 8.550781 30.828125 9.085938 30.75 L 12.03125 30.308594 C 12.222656 30.28125 12.394531 30.320312 12.554688 30.429688 C 12.710938 30.542969 12.808594 30.695312 12.84375 30.882812 L 13.660156 34.992188 C 13.683594 35.105469 13.738281 35.199219 13.828125 35.269531 C 13.917969 35.34375 14.023438 35.378906 14.136719 35.378906 L 29.613281 35.378906 C 29.785156 35.378906 29.917969 35.308594 30.011719 35.167969 C 30.105469 35.027344 30.121094 34.878906 30.058594 34.722656 C 30.03125 34.644531 27.082031 27.074219 29.582031 23.789062 C 29.765625 23.554688 29.976562 23.351562 30.210938 23.171875 C 31.257812 22.347656 34.574219 19.164062 34.179688 12.910156 C 33.699219 5.171875 26.914062 2.394531 26.867188 2.394531 Z M 29.601562 22.433594 C 29.304688 22.667969 29.039062 22.925781 28.804688 23.21875 C 26.417969 26.355469 28.234375 32.421875 28.929688 34.429688 L 14.476562 34.429688 L 13.738281 30.707031 C 13.695312 30.492188 13.617188 30.292969 13.496094 30.113281 C 13.378906 29.929688 13.230469 29.777344 13.050781 29.652344 C 12.871094 29.527344 12.675781 29.441406 12.464844 29.394531 C 12.253906 29.34375 12.039062 29.335938 11.824219 29.371094 L 8.882812 29.8125 C 8.539062 29.863281 8.210938 29.816406 7.894531 29.667969 C 7.582031 29.523438 7.332031 29.300781 7.148438 29.007812 C 6.964844 28.710938 6.878906 28.390625 6.886719 28.042969 C 6.894531 27.695312 7 27.378906 7.195312 27.09375 L 7.429688 26.757812 C 7.613281 26.5 7.675781 26.214844 7.617188 25.902344 C 7.558594 25.589844 7.402344 25.347656 7.140625 25.171875 L 6.761719 24.917969 L 7.238281 24.472656 C 7.449219 24.28125 7.507812 24.054688 7.410156 23.789062 C 7.324219 23.53125 7.144531 23.390625 6.875 23.367188 L 6.273438 23.367188 L 6.53125 22.3125 C 6.578125 22.109375 6.558594 21.914062 6.46875 21.730469 C 6.378906 21.542969 6.242188 21.40625 6.054688 21.316406 L 4.457031 20.5625 C 4.429688 20.550781 4.410156 20.527344 4.402344 20.5 C 4.390625 20.472656 4.390625 20.445312 4.402344 20.417969 L 7.144531 16.65625 C 7.394531 16.316406 7.53125 15.9375 7.546875 15.515625 C 7.566406 15.09375 7.460938 14.703125 7.238281 14.347656 C 7.078125 14.09375 7.035156 13.824219 7.109375 13.539062 L 7.726562 11.148438 C 9.128906 7.066406 11.421875 4.304688 14.550781 2.929688 C 20.070312 0.507812 26.417969 3.234375 26.503906 3.269531 C 27.453125 3.691406 28.332031 4.238281 29.132812 4.902344 C 29.9375 5.566406 30.636719 6.328125 31.226562 7.183594 C 31.820312 8.042969 32.289062 8.964844 32.628906 9.949219 C 32.96875 10.933594 33.167969 11.949219 33.230469 12.988281 C 33.585938 18.761719 30.542969 21.675781 29.601562 22.429688 Z M 29.601562 22.433594 " fill-opacity="1" fill-rule="nonzero"/></svg>