<svg xmlns="http://www.w3.org/2000/svg" xmlns:xlink="http://www.w3.org/1999/xlink" width="50" zoomAndPan="magnify" viewBox="0 0 37.5 37.499999" height="50" preserveAspectRatio="xMidYMid meet" version="1.0"><path fill="#612d91" d="M 29.09375 8.105469 C 28.996094 8.105469 28.898438 8.066406 28.824219 7.992188 C 26.066406 5.234375 22.402344 3.71875 18.503906 3.71875 C 18.292969 3.71875 18.121094 3.546875 18.121094 3.335938 C 18.121094 3.128906 18.292969 2.957031 18.503906 2.957031 C 20.53125 2.957031 22.507812 3.351562 24.378906 4.125 C 26.253906 4.902344 27.929688 6.023438 29.363281 7.457031 C 29.511719 7.605469 29.511719 7.84375 29.363281 7.992188 C 29.289062 8.066406 29.191406 8.105469 29.09375 8.105469 Z M 29.09375 8.105469 " fill-opacity="1" fill-rule="evenodd"/><path fill="#612d91" d="M 19.75 4.964844 C 19.652344 4.964844 19.554688 4.929688 19.480469 4.855469 L 18.234375 3.605469 C 18.164062 3.535156 18.121094 3.4375 18.121094 3.335938 C 18.121094 3.238281 18.164062 3.140625 18.234375 3.066406 L 19.480469 1.820312 C 19.632812 1.671875 19.871094 1.671875 20.019531 1.820312 C 20.167969 1.96875 20.167969 2.210938 20.019531 2.359375 L 19.039062 3.335938 L 20.019531 4.316406 C 20.167969 4.464844 20.167969 4.707031 20.019531 4.855469 C 19.945312 4.929688 19.847656 4.964844 19.75 4.964844 Z M 19.75 4.964844 " fill-opacity="1" fill-rule="evenodd"/><path fill="#612d91" d="M 5.53125 11.207031 C 5.464844 11.207031 5.402344 11.191406 5.339844 11.15625 C 5.160156 11.050781 5.097656 10.816406 5.203125 10.636719 C 6.214844 8.878906 7.542969 7.363281 9.152344 6.128906 C 10.761719 4.894531 12.570312 4.003906 14.527344 3.480469 C 14.730469 3.425781 14.9375 3.546875 14.992188 3.75 C 15.046875 3.953125 14.925781 4.160156 14.722656 4.214844 C 10.957031 5.222656 7.808594 7.640625 5.859375 11.015625 C 5.789062 11.136719 5.660156 11.207031 5.53125 11.207031 Z M 5.53125 11.207031 " fill-opacity="1" fill-rule="evenodd"/><path fill="#612d91" d="M 5.53125 11.207031 C 5.464844 11.207031 5.398438 11.1875 5.339844 11.15625 C 5.253906 11.105469 5.1875 11.023438 5.164062 10.925781 L 4.707031 9.21875 C 4.652344 9.015625 4.773438 8.808594 4.976562 8.753906 C 5.179688 8.699219 5.386719 8.820312 5.441406 9.023438 L 5.800781 10.359375 L 7.136719 10.003906 C 7.339844 9.945312 7.550781 10.066406 7.605469 10.269531 C 7.65625 10.472656 7.539062 10.683594 7.335938 10.734375 L 5.628906 11.195312 C 5.597656 11.203125 5.5625 11.207031 5.53125 11.207031 Z M 5.53125 11.207031 " fill-opacity="1" fill-rule="evenodd"/><path fill="#612d91" d="M 5.53125 26.183594 C 5.398438 26.183594 5.273438 26.117188 5.203125 25.996094 C 4.1875 24.238281 3.539062 22.328125 3.273438 20.320312 C 3.011719 18.308594 3.140625 16.296875 3.667969 14.339844 C 3.722656 14.136719 3.929688 14.015625 4.132812 14.070312 C 4.335938 14.125 4.457031 14.335938 4.402344 14.539062 C 3.394531 18.304688 3.910156 22.238281 5.859375 25.613281 C 5.964844 25.796875 5.902344 26.027344 5.722656 26.132812 C 5.660156 26.167969 5.59375 26.183594 5.53125 26.183594 Z M 5.53125 26.183594 " fill-opacity="1" fill-rule="evenodd"/><path fill="#612d91" d="M 5.53125 26.183594 C 5.496094 26.183594 5.464844 26.179688 5.433594 26.171875 L 3.726562 25.714844 C 3.523438 25.660156 3.402344 25.453125 3.457031 25.25 C 3.511719 25.046875 3.71875 24.925781 3.921875 24.980469 L 5.261719 25.339844 L 5.621094 24 C 5.675781 23.796875 5.882812 23.675781 6.085938 23.730469 C 6.289062 23.785156 6.410156 23.996094 6.355469 24.195312 L 5.898438 25.902344 C 5.871094 26 5.808594 26.082031 5.722656 26.132812 C 5.664062 26.167969 5.597656 26.183594 5.53125 26.183594 Z M 5.53125 26.183594 " fill-opacity="1" fill-rule="evenodd"/><path fill="#612d91" d="M 18.503906 33.675781 C 16.476562 33.675781 14.496094 33.28125 12.625 32.503906 C 10.75 31.730469 9.074219 30.609375 7.640625 29.175781 C 7.492188 29.027344 7.492188 28.785156 7.640625 28.636719 C 7.789062 28.488281 8.03125 28.488281 8.179688 28.636719 C 10.9375 31.394531 14.601562 32.914062 18.503906 32.914062 C 18.710938 32.914062 18.882812 33.082031 18.882812 33.292969 C 18.882812 33.503906 18.710938 33.675781 18.503906 33.675781 Z M 18.503906 33.675781 " fill-opacity="1" fill-rule="evenodd"/><path fill="#612d91" d="M 17.253906 34.921875 C 17.15625 34.921875 17.058594 34.886719 16.984375 34.8125 C 16.835938 34.664062 16.835938 34.421875 16.984375 34.273438 L 17.964844 33.292969 L 16.984375 32.3125 C 16.835938 32.164062 16.835938 31.925781 16.984375 31.777344 C 17.132812 31.628906 17.375 31.628906 17.523438 31.777344 L 18.769531 33.023438 C 18.84375 33.097656 18.882812 33.191406 18.882812 33.292969 C 18.882812 33.394531 18.84375 33.492188 18.769531 33.5625 L 17.523438 34.8125 C 17.449219 34.886719 17.351562 34.921875 17.253906 34.921875 Z M 17.253906 34.921875 " fill-opacity="1" fill-rule="evenodd"/><path fill="#612d91" d="M 22.378906 33.164062 C 22.210938 33.164062 22.058594 33.050781 22.011719 32.882812 C 21.957031 32.679688 22.078125 32.46875 22.28125 32.414062 C 26.046875 31.40625 29.195312 28.992188 31.144531 25.613281 C 31.25 25.433594 31.480469 25.371094 31.664062 25.476562 C 31.847656 25.582031 31.910156 25.8125 31.804688 25.996094 C 30.789062 27.75 29.460938 29.265625 27.851562 30.5 C 26.242188 31.734375 24.433594 32.625 22.476562 33.152344 C 22.445312 33.160156 22.410156 33.164062 22.378906 33.164062 Z M 22.378906 33.164062 " fill-opacity="1" fill-rule="evenodd"/><path fill="#612d91" d="M 31.929688 27.890625 C 31.761719 27.890625 31.609375 27.777344 31.5625 27.609375 L 31.203125 26.269531 L 29.867188 26.628906 C 29.664062 26.683594 29.453125 26.5625 29.402344 26.359375 C 29.347656 26.15625 29.46875 25.949219 29.667969 25.894531 L 31.375 25.4375 C 31.472656 25.410156 31.578125 25.425781 31.664062 25.476562 C 31.75 25.527344 31.816406 25.609375 31.839844 25.707031 L 32.296875 27.410156 C 32.351562 27.613281 32.230469 27.824219 32.027344 27.878906 C 31.996094 27.886719 31.964844 27.890625 31.929688 27.890625 Z M 31.929688 27.890625 " fill-opacity="1" fill-rule="evenodd"/><path fill="#612d91" d="M 32.96875 22.574219 C 32.9375 22.574219 32.90625 22.570312 32.871094 22.558594 C 32.667969 22.503906 32.546875 22.296875 32.601562 22.09375 C 33.613281 18.328125 33.09375 14.394531 31.144531 11.015625 C 31.039062 10.835938 31.101562 10.601562 31.285156 10.496094 C 31.464844 10.390625 31.699219 10.453125 31.804688 10.636719 C 32.816406 12.390625 33.464844 14.300781 33.730469 16.3125 C 33.996094 18.320312 33.863281 20.332031 33.335938 22.289062 C 33.292969 22.460938 33.136719 22.574219 32.96875 22.570312 Z M 32.96875 22.574219 " fill-opacity="1" fill-rule="evenodd"/><path fill="#612d91" d="M 31.015625 12.914062 C 30.984375 12.914062 30.949219 12.90625 30.917969 12.898438 C 30.714844 12.84375 30.59375 12.636719 30.648438 12.433594 L 31.105469 10.726562 C 31.160156 10.523438 31.367188 10.40625 31.574219 10.457031 L 33.277344 10.914062 C 33.480469 10.96875 33.601562 11.179688 33.546875 11.382812 C 33.492188 11.585938 33.285156 11.703125 33.082031 11.652344 L 31.742188 11.292969 L 31.382812 12.628906 C 31.339844 12.800781 31.183594 12.914062 31.015625 12.914062 Z M 31.015625 12.914062 " fill-opacity="1" fill-rule="evenodd"/><path fill="#612d91" d="M 22.148438 30.050781 L 19.671875 30.050781 C 19.460938 30.050781 19.289062 29.882812 19.289062 29.671875 L 19.289062 24.140625 C 19.289062 23.929688 19.460938 23.757812 19.671875 23.757812 C 19.882812 23.757812 20.050781 23.929688 20.050781 24.140625 L 20.050781 29.289062 L 21.769531 29.289062 L 21.769531 24.140625 C 21.769531 23.929688 21.941406 23.757812 22.148438 23.757812 C 22.359375 23.757812 22.53125 23.929688 22.53125 24.140625 L 22.53125 29.671875 C 22.53125 29.882812 22.359375 30.050781 22.148438 30.050781 Z M 22.148438 30.050781 " fill-opacity="1" fill-rule="evenodd"/><path fill="#612d91" d="M 20.910156 24.566406 C 20.488281 24.566406 20.0625 24.550781 19.644531 24.519531 C 16.589844 24.292969 13.949219 23.277344 12.398438 21.726562 C 12.300781 21.628906 12.265625 21.488281 12.304688 21.355469 C 12.339844 21.222656 12.449219 21.121094 12.582031 21.089844 C 15.480469 20.40625 16.878906 18.273438 17.453125 17.0625 C 17.542969 16.875 17.769531 16.792969 17.957031 16.882812 C 18.148438 16.972656 18.230469 17.199219 18.140625 17.390625 C 17.554688 18.625 16.1875 20.734375 13.441406 21.636719 C 14.902344 22.808594 17.136719 23.570312 19.699219 23.761719 C 20.503906 23.820312 21.316406 23.820312 22.121094 23.761719 C 24.683594 23.570312 26.917969 22.808594 28.378906 21.636719 C 25.632812 20.734375 24.269531 18.632812 23.683594 17.398438 C 23.59375 17.207031 23.675781 16.980469 23.867188 16.890625 C 24.054688 16.800781 24.28125 16.882812 24.371094 17.074219 C 24.945312 18.28125 26.339844 20.40625 29.238281 21.089844 C 29.371094 21.121094 29.480469 21.222656 29.515625 21.355469 C 29.554688 21.488281 29.519531 21.628906 29.421875 21.726562 C 27.871094 23.277344 25.230469 24.292969 22.175781 24.519531 C 21.757812 24.550781 21.332031 24.566406 20.910156 24.566406 Z M 20.910156 24.566406 " fill-opacity="1" fill-rule="evenodd"/><path fill="#612d91" d="M 20.9375 18.011719 C 19.828125 18.011719 18.714844 17.871094 17.695312 17.59375 C 16.34375 17.222656 15.222656 16.621094 14.460938 15.859375 C 14.363281 15.761719 14.328125 15.617188 14.363281 15.484375 C 14.402344 15.351562 14.507812 15.25 14.644531 15.21875 C 17.132812 14.636719 18.121094 12.558594 18.367188 11.9375 C 18.445312 11.742188 18.664062 11.648438 18.859375 11.722656 C 19.054688 11.800781 19.152344 12.019531 19.074219 12.214844 C 18.820312 12.867188 17.851562 14.902344 15.503906 15.753906 C 16.136719 16.222656 16.949219 16.597656 17.898438 16.859375 C 19.792969 17.382812 22.050781 17.382812 23.929688 16.867188 C 24.871094 16.609375 25.683594 16.230469 26.316406 15.757812 C 23.96875 14.902344 23 12.867188 22.746094 12.214844 C 22.667969 12.019531 22.765625 11.800781 22.960938 11.722656 C 23.15625 11.648438 23.375 11.742188 23.453125 11.9375 C 23.699219 12.558594 24.6875 14.636719 27.179688 15.21875 C 27.3125 15.25 27.417969 15.351562 27.457031 15.484375 C 27.492188 15.617188 27.457031 15.761719 27.359375 15.859375 C 26.585938 16.632812 25.46875 17.234375 24.128906 17.601562 C 23.132812 17.875 22.039062 18.011719 20.9375 18.011719 Z M 20.9375 18.011719 " fill-opacity="1" fill-rule="evenodd"/><path fill="#612d91" d="M 18.816406 11.707031 C 20.144531 12.046875 21.675781 12.046875 23.003906 11.707031 C 23.320312 11.628906 23.617188 11.53125 23.890625 11.417969 C 22.4375 10.582031 21.414062 8.871094 20.910156 7.871094 C 20.40625 8.871094 19.382812 10.582031 17.929688 11.417969 C 18.203125 11.53125 18.5 11.628906 18.816406 11.707031 Z M 20.910156 12.722656 C 20.132812 12.722656 19.351562 12.628906 18.628906 12.445312 C 17.953125 12.273438 17.355469 12.03125 16.84375 11.726562 C 16.714844 11.648438 16.644531 11.503906 16.664062 11.355469 C 16.683594 11.203125 16.785156 11.082031 16.929688 11.035156 C 19.136719 10.347656 20.542969 6.855469 20.554688 6.820312 C 20.613281 6.675781 20.753906 6.578125 20.910156 6.578125 C 21.066406 6.578125 21.207031 6.675781 21.261719 6.820312 C 21.277344 6.855469 22.6875 10.347656 24.890625 11.035156 C 25.035156 11.082031 25.136719 11.203125 25.15625 11.355469 C 25.175781 11.503906 25.105469 11.648438 24.976562 11.726562 C 24.464844 12.03125 23.867188 12.273438 23.191406 12.445312 C 22.46875 12.628906 21.6875 12.722656 20.910156 12.722656 Z M 20.910156 12.722656 " fill-opacity="1" fill-rule="evenodd"/><path fill="#612d91" d="M 17.332031 30.050781 L 14.855469 30.050781 C 14.644531 30.050781 14.472656 29.882812 14.472656 29.671875 L 14.472656 24.140625 C 14.472656 23.929688 14.644531 23.757812 14.855469 23.757812 C 15.066406 23.757812 15.234375 23.929688 15.234375 24.140625 L 15.234375 29.289062 L 16.953125 29.289062 L 16.953125 24.140625 C 16.953125 23.929688 17.125 23.757812 17.332031 23.757812 C 17.542969 23.757812 17.714844 23.929688 17.714844 24.140625 L 17.714844 29.671875 C 17.714844 29.882812 17.542969 30.050781 17.332031 30.050781 Z M 17.332031 30.050781 " fill-opacity="1" fill-rule="evenodd"/><path fill="#612d91" d="M 16.09375 24.566406 C 15.671875 24.566406 15.246094 24.550781 14.828125 24.519531 C 11.773438 24.292969 9.132812 23.277344 7.585938 21.726562 C 7.488281 21.628906 7.449219 21.488281 7.488281 21.355469 C 7.523438 21.222656 7.632812 21.121094 7.765625 21.089844 C 10.667969 20.40625 12.0625 18.273438 12.636719 17.0625 C 12.714844 16.894531 12.902344 16.8125 13.082031 16.859375 C 14.472656 17.242188 16.074219 17.351562 17.589844 17.164062 C 17.800781 17.140625 17.988281 17.289062 18.015625 17.496094 C 18.039062 17.703125 17.890625 17.894531 17.683594 17.917969 C 16.179688 18.105469 14.59375 18.015625 13.183594 17.671875 C 12.53125 18.925781 11.171875 20.800781 8.625 21.636719 C 10.085938 22.808594 12.320312 23.570312 14.882812 23.761719 C 15.6875 23.820312 16.5 23.820312 17.304688 23.761719 C 17.691406 23.730469 18.074219 23.691406 18.445312 23.636719 C 18.652344 23.605469 18.847656 23.75 18.878906 23.957031 C 18.910156 24.164062 18.765625 24.355469 18.558594 24.386719 C 18.164062 24.445312 17.761719 24.488281 17.363281 24.519531 C 16.941406 24.550781 16.519531 24.566406 16.09375 24.566406 Z M 16.09375 24.566406 " fill-opacity="1" fill-rule="evenodd"/><path fill="#612d91" d="M 16.125 18.011719 C 15.007812 18.011719 13.890625 17.871094 12.878906 17.59375 C 11.527344 17.222656 10.40625 16.621094 9.644531 15.859375 C 9.546875 15.761719 9.511719 15.617188 9.546875 15.484375 C 9.585938 15.351562 9.691406 15.25 9.828125 15.21875 C 12.316406 14.636719 13.308594 12.558594 13.550781 11.9375 C 13.621094 11.761719 13.8125 11.660156 14 11.707031 C 15.332031 12.046875 16.859375 12.046875 18.191406 11.707031 C 18.394531 11.65625 18.601562 11.78125 18.652344 11.984375 C 18.703125 12.1875 18.582031 12.394531 18.375 12.445312 C 17.03125 12.785156 15.5 12.8125 14.128906 12.519531 C 13.742188 13.355469 12.742188 15.007812 10.6875 15.753906 C 11.320312 16.222656 12.132812 16.597656 13.082031 16.859375 C 14.472656 17.242188 16.074219 17.351562 17.589844 17.164062 C 17.800781 17.140625 17.988281 17.289062 18.015625 17.496094 C 18.042969 17.703125 17.890625 17.894531 17.683594 17.917969 C 17.171875 17.980469 16.648438 18.011719 16.125 18.011719 Z M 16.125 18.011719 " fill-opacity="1" fill-rule="evenodd"/><path fill="#612d91" d="M 16.09375 12.722656 C 15.316406 12.722656 14.535156 12.628906 13.8125 12.445312 C 13.140625 12.273438 12.539062 12.03125 12.027344 11.722656 C 11.902344 11.648438 11.828125 11.503906 11.847656 11.355469 C 11.867188 11.203125 11.96875 11.082031 12.113281 11.035156 C 14.320312 10.347656 15.726562 6.855469 15.742188 6.820312 C 15.796875 6.675781 15.9375 6.578125 16.09375 6.578125 C 16.25 6.578125 16.390625 6.675781 16.449219 6.820312 C 16.457031 6.839844 17.320312 8.980469 18.753906 10.25 C 18.910156 10.386719 18.925781 10.628906 18.789062 10.785156 C 18.648438 10.945312 18.40625 10.957031 18.25 10.820312 C 17.234375 9.921875 16.496094 8.667969 16.09375 7.871094 C 15.589844 8.871094 14.566406 10.582031 13.113281 11.417969 C 13.386719 11.53125 13.683594 11.628906 14 11.707031 C 15.332031 12.046875 16.859375 12.046875 18.191406 11.707031 C 18.261719 11.691406 18.328125 11.671875 18.398438 11.652344 C 18.601562 11.59375 18.808594 11.710938 18.867188 11.914062 C 18.925781 12.117188 18.808594 12.328125 18.605469 12.382812 C 18.53125 12.40625 18.453125 12.425781 18.375 12.445312 C 17.652344 12.628906 16.871094 12.722656 16.09375 12.722656 Z M 16.09375 12.722656 " fill-opacity="1" fill-rule="evenodd"/></svg>